<svg width="383" height="162" viewBox="0 0 383 162" fill="none" xmlns="http://www.w3.org/2000/svg">
<path d="M131.455 74.1998V36.7835H142.68L153.905 49.5051L164.298 36.7835H175.191V74.1998H162.719V55.8245L153.656 66.2178H153.406L143.927 55.8245V74.1998H131.455Z" fill="#562211"/>
<path d="M201.209 63.5574C205.532 63.5574 208.692 60.4808 208.692 55.4914C208.692 50.7521 205.449 47.4273 201.209 47.4273C196.969 47.4273 193.725 50.5861 193.725 55.4914C193.725 60.148 196.885 63.5574 201.209 63.5574ZM180.422 55.4914C180.422 49.7546 182.335 45.0981 186.076 41.357C189.901 37.6147 194.972 35.786 201.209 35.786C207.445 35.786 212.516 37.6147 216.258 41.357C220.083 45.0981 221.995 49.7546 221.995 55.4914C221.995 61.2282 220.083 65.8857 216.258 69.6261C212.516 73.3682 207.445 75.1971 201.209 75.1971C194.972 75.1971 189.901 73.3682 186.076 69.6261C182.335 65.8857 180.422 61.2282 180.422 55.4914Z" fill="#562211"/>
<path d="M243.197 18.4921C243.197 21.7341 244.36 23.3146 246.688 23.3146C248.767 23.3146 249.849 21.7341 249.849 18.4921H260.657C260.657 26.7232 255.669 32.6267 246.688 32.6267C236.96 32.6267 232.388 26.8892 232.388 18.4921H243.197ZM239.704 74.2H227.232V36.7837H239.704V56.3233L253.007 36.7837H265.479V74.2H253.007V54.6604L239.704 74.2Z" fill="#562211"/>
<path d="M50.1412 118.682C53.7172 118.682 56.7102 117.435 58.9554 115.024C61.2837 112.612 62.447 109.619 62.447 106.044C62.447 98.477 58.0412 93.3228 50.4738 93.3228C47.1483 93.3228 44.3214 94.237 41.9938 96.1497C39.6649 98.0614 38.1681 100.307 37.5864 102.885C37.5864 112.446 42.7415 118.682 50.1412 118.682ZM65.6897 70.2909C64.3596 72.1203 62.7798 73.3676 60.8681 74.032C58.9554 74.6976 56.6264 75.2793 53.8833 75.6949C51.1394 76.1105 48.7281 76.8599 46.6497 77.7743C40.9956 80.3514 37.8362 86.3387 37.1706 95.8169H37.3366C39.7486 90.5787 45.8182 87.0864 52.1367 87.0864C62.7798 87.0864 69.5148 94.4031 69.5148 105.712C69.5148 111.033 67.6859 115.606 64.1106 119.347C60.5346 123.089 55.8787 124.918 50.308 124.918C44.2384 124.918 39.4151 122.84 35.8405 118.682C32.2652 114.524 30.5195 108.871 30.5195 101.637C30.5195 85.4235 35.1751 75.363 44.4044 71.4549C46.6497 70.4577 49.1437 69.792 51.7208 69.3764C56.96 68.462 59.8699 67.9626 62.1151 65.0527L65.6897 70.2909Z" fill="#562211"/>
<path d="M82.1481 124.087H75.4961V86.6707H82.1481V114.525L103.767 86.6707H110.418V124.087H103.767V96.2335L82.1481 124.087Z" fill="#562211"/>
<path d="M122.309 123.505C119.233 122.507 117.072 121.26 115.824 119.846L119.233 114.858C122.226 117.269 126.883 118.932 130.291 118.932C136.029 118.932 140.102 116.437 140.102 112.78C140.102 109.703 137.359 107.957 132.786 107.957H126.467V102.552H132.37C136.112 102.552 138.855 100.224 138.855 97.2311C138.855 93.9047 135.779 91.8262 130.873 91.8262C126.883 91.8262 123.141 93.2393 119.649 95.9838L117.072 90.8287C120.065 87.752 125.885 85.8396 131.871 85.8396C140.852 85.8396 145.923 89.6647 145.923 95.9001C145.923 100.224 143.761 103.134 139.355 104.715V104.88C144.344 105.463 147.17 109.121 147.17 113.694C147.17 120.595 140.685 124.919 131.29 124.919C128.379 124.919 125.386 124.42 122.309 123.505Z" fill="#562211"/>
<path d="M181.172 124.087V108.289H160.386V124.087H153.734V86.6707H160.386V102.052H181.172V86.6707H187.824V124.087H181.172Z" fill="#562211"/>
<path d="M200.88 102.053H223.579C223.247 95.8171 219.173 92.0757 212.77 92.0757C206.118 92.0757 201.629 96.1499 200.88 102.053ZM227.903 120.013C224.328 123.255 219.588 124.919 213.851 124.919C207.781 124.919 202.959 123.172 199.301 119.597C195.643 116.021 193.812 111.282 193.812 105.379C193.812 99.7243 195.559 95.0687 198.968 91.4104C202.377 87.669 207.116 85.8396 213.102 85.8396C218.009 85.8396 222.166 87.4194 225.492 90.6619C228.818 93.8216 230.48 97.8956 230.48 102.968C230.48 104.714 230.314 106.21 230.065 107.457H201.296C201.878 114.442 206.95 118.682 214.35 118.682C219.256 118.682 223.081 117.351 225.824 114.774L227.903 120.013Z" fill="#562211"/>
<path d="M267.393 118.682C264.316 122.673 258.912 124.919 253.009 124.919C247.021 124.919 242.2 123.172 238.458 119.597C234.8 116.021 232.971 111.282 232.971 105.379C232.971 99.8912 234.8 95.2347 238.375 91.4934C241.95 87.752 246.524 85.8396 251.928 85.8396C258.496 85.8396 263.401 87.5022 266.645 90.745L263.568 95.9838C260.741 93.4051 257.166 92.0757 252.842 92.0757C249.351 92.0757 246.357 93.323 243.78 95.9001C241.285 98.3942 240.038 101.554 240.038 105.379C240.038 109.369 241.285 112.613 243.863 115.024C246.44 117.435 249.682 118.682 253.508 118.682C257.831 118.682 261.407 117.102 264.233 113.86L267.393 118.682Z" fill="#562211"/>
<path d="M345.005 135.914L332.513 123.437L320.02 135.914L332.51 162L345.005 135.914Z" fill="#ED5338"/>
<path d="M332.446 51.676C327.653 51.676 323.766 55.5641 323.766 60.3575C323.766 65.1516 327.653 69.039 332.446 69.039C337.241 69.039 341.128 65.1516 341.128 60.3575C341.128 55.5641 337.241 51.676 332.446 51.676Z" fill="#C49369"/>
<path d="M343.642 96.0412L332.507 84.8879L321.373 96.0412C320.805 94.4947 313.346 74.3038 313.346 61.1292C313.346 43.3595 331.168 33.4034 332.507 32.6741C333.848 33.4034 351.67 43.3595 351.67 61.1292C351.67 74.3038 344.211 94.4947 343.642 96.0412ZM332.507 12.7156C329.863 14.0706 295.303 32.333 295.303 61.515C295.303 86.4753 315.644 124.332 315.644 124.332L332.507 107.439L349.371 124.332C349.371 124.332 369.715 86.4753 369.715 61.515C369.715 32.333 335.153 14.0706 332.507 12.7156Z" fill="#C49369"/>
<path d="M369.716 25.4314L357 12.7157L369.716 0L382.432 12.7157L369.716 25.4314Z" fill="#C49369"/>
<path d="M0 135.71V155.845H2.57405V146.616H3.40384C6.80767 146.616 8.0947 148.437 9.0261 151.095C9.55953 152.679 10.1268 154.474 10.8466 155.845H13.6492C12.7517 154.05 12.1844 152.204 11.4393 150.138C10.3978 147.42 9.11077 145.388 5.80007 144.94L13.4121 135.71H10.2793L3.37844 144.643H2.57405V135.71H0ZM26.8525 155.845C26.6747 154.863 26.6154 153.635 26.6154 152.382V146.972C26.6154 144.076 25.5401 141.062 21.1202 141.062C19.2997 141.062 17.5639 141.57 16.37 142.34L16.9712 144.076C17.9788 143.415 19.3844 143.001 20.7307 143.001C23.6857 143.001 24.016 145.151 24.016 146.345V146.642C18.4276 146.616 15.3201 148.53 15.3201 152.018C15.3201 154.11 16.8188 156.176 19.7485 156.176C21.806 156.176 23.3555 155.16 24.1684 154.025H24.253L24.4647 155.845H26.8525ZM24.0752 150.977C24.0752 151.248 24.016 151.544 23.9228 151.815C23.5079 153.034 22.314 154.228 20.4343 154.228C19.088 154.228 17.9534 153.424 17.9534 151.722C17.9534 148.919 21.2048 148.411 24.0752 148.47V150.977ZM30.8575 161.764H33.4485V153.906H33.5162C34.3799 155.337 36.0479 156.176 37.9615 156.176C41.3654 156.176 44.5321 153.602 44.5321 148.411C44.5321 144.017 41.9073 141.062 38.4103 141.062C36.0479 141.062 34.346 142.103 33.2707 143.864H33.2114L33.0929 141.392H30.7305C30.7898 142.763 30.8575 144.254 30.8575 146.108V161.764ZM33.4485 147.48C33.4485 147.124 33.5416 146.735 33.6348 146.404C34.1428 144.432 35.8109 143.153 37.6059 143.153C40.3832 143.153 41.9073 145.625 41.9073 148.53C41.9073 151.84 40.29 154.11 37.5128 154.11C35.633 154.11 34.0497 152.856 33.5755 151.036C33.5162 150.706 33.4485 150.35 33.4485 149.961V147.48ZM58.2406 155.845C58.0628 154.863 58.0035 153.635 58.0035 152.382V146.972C58.0035 144.076 56.9282 141.062 52.5083 141.062C50.6878 141.062 48.952 141.57 47.7582 142.34L48.3593 144.076C49.3669 143.415 50.7725 143.001 52.1188 143.001C55.0739 143.001 55.4041 145.151 55.4041 146.345V146.642C49.8157 146.616 46.7082 148.53 46.7082 152.018C46.7082 154.11 48.2069 156.176 51.1366 156.176C53.1941 156.176 54.7436 155.16 55.5565 154.025H55.6412L55.8529 155.845H58.2406ZM55.4634 150.977C55.4634 151.248 55.4041 151.544 55.311 151.815C54.8961 153.034 53.7022 154.228 51.8224 154.228C50.4761 154.228 49.3415 153.424 49.3415 151.722C49.3415 148.919 52.593 148.411 55.4634 148.47V150.977ZM61.5788 141.392V146.438C61.5788 149.749 63.5856 151.155 66.329 151.155C67.7091 151.155 69.2586 150.706 70.2408 150.054H70.3001V155.845H72.8996V141.392H70.3001V148.199C69.4957 148.792 68.3357 149.216 67.2011 149.216C64.898 149.216 64.2122 147.962 64.2122 146.133V141.392H61.5788ZM87.5987 155.845C87.4209 154.863 87.3616 153.635 87.3616 152.382V146.972C87.3616 144.076 86.2863 141.062 81.8664 141.062C80.0459 141.062 78.3101 141.57 77.1163 142.34L77.7174 144.076C78.725 143.415 80.1306 143.001 81.4769 143.001C84.432 143.001 84.7622 145.151 84.7622 146.345V146.642C79.1738 146.616 76.0663 148.53 76.0663 152.018C76.0663 154.11 77.565 156.176 80.4947 156.176C82.5522 156.176 84.1017 155.16 84.9146 154.025H84.9993L85.2109 155.845H87.5987ZM84.8215 150.977C84.8215 151.248 84.7622 151.544 84.6691 151.815C84.2542 153.034 83.0603 154.228 81.1805 154.228C79.8342 154.228 78.6996 153.424 78.6996 151.722C78.6996 148.919 81.9511 148.411 84.8215 148.47V150.977ZM103.221 149.097C103.246 148.826 103.305 148.411 103.305 147.869C103.305 145.211 102.052 141.062 97.3361 141.062C93.1194 141.062 90.5538 144.491 90.5538 148.851C90.5538 153.221 93.2125 156.142 97.6663 156.142C99.9609 156.142 101.544 155.668 102.476 155.244L102.027 153.365C101.036 153.788 99.9016 154.11 98.0219 154.11C95.3971 154.11 93.1194 152.653 93.0601 149.097H103.221ZM93.094 147.209C93.3056 145.388 94.4657 142.941 97.1244 142.941C100.079 142.941 100.799 145.541 100.774 147.209H93.094ZM106.498 155.845C107.277 155.905 108.953 156.023 110.562 156.023C113.398 156.023 118.182 155.549 118.182 151.756C118.182 149.664 116.624 148.47 114.508 148.166V148.106C116.15 147.751 117.522 146.642 117.522 144.855C117.522 141.629 113.525 141.239 111.104 141.239C109.402 141.239 107.514 141.392 106.498 141.57V155.845ZM109.012 143.178C109.639 143.119 110.172 143.06 111.045 143.06C113.669 143.06 114.923 143.746 114.923 145.185C114.923 146.887 112.924 147.454 110.985 147.454H109.012V143.178ZM108.979 149.182H110.892C113.398 149.182 115.49 149.63 115.49 151.722C115.49 153.813 112.865 154.228 111.104 154.228C110.266 154.228 109.724 154.203 108.979 154.11V149.182ZM127.623 141.062C123.618 141.062 120.452 143.898 120.452 148.733C120.452 153.305 123.466 156.176 127.386 156.176C130.875 156.176 134.584 153.847 134.584 148.496C134.584 144.076 131.772 141.062 127.623 141.062ZM127.564 143.034C130.672 143.034 131.891 146.133 131.891 148.589C131.891 151.84 130.011 154.203 127.505 154.203C124.931 154.203 123.11 151.815 123.11 148.648C123.11 145.896 124.457 143.034 127.564 143.034ZM136.616 146.794V148.733H143.991V146.794H136.616ZM147.005 135.71V142.493C147.005 147.42 150.299 148.555 152.957 148.555C154.719 148.555 156.387 148.106 157.792 147.302H157.852V155.845H160.485V135.71H157.852V145.27C156.81 145.93 155.286 146.404 153.88 146.404C151.044 146.404 149.604 144.855 149.604 142.103V135.71H147.005ZM176.522 149.097C176.547 148.826 176.607 148.411 176.607 147.869C176.607 145.211 175.353 141.062 170.637 141.062C166.42 141.062 163.855 144.491 163.855 148.851C163.855 153.221 166.514 156.142 170.967 156.142C173.262 156.142 174.845 155.668 175.777 155.244L175.328 153.365C174.337 153.788 173.203 154.11 171.323 154.11C168.698 154.11 166.42 152.653 166.361 149.097H176.522ZM166.395 147.209C166.607 145.388 167.767 142.941 170.425 142.941C173.381 142.941 174.1 145.541 174.075 147.209H166.395ZM179.866 161.764H182.457V153.906H182.525C183.389 155.337 185.057 156.176 186.97 156.176C190.374 156.176 193.541 153.602 193.541 148.411C193.541 144.017 190.916 141.062 187.419 141.062C185.057 141.062 183.355 142.103 182.28 143.864H182.22L182.102 141.392H179.739C179.799 142.763 179.866 144.254 179.866 146.108V161.764ZM182.457 147.48C182.457 147.124 182.551 146.735 182.644 146.404C183.152 144.432 184.82 143.153 186.615 143.153C189.392 143.153 190.916 145.625 190.916 148.53C190.916 151.84 189.299 154.11 186.522 154.11C184.642 154.11 183.059 152.856 182.584 151.036C182.525 150.706 182.457 150.35 182.457 149.961V147.48ZM196.86 141.392V155.845H199.451V149.487H199.959C202.415 149.487 203.753 150.562 204.743 152.89C205.192 154.084 205.7 155.219 206.09 155.845H208.833C208.181 154.677 207.673 153.28 207.283 152.323C206.149 149.724 204.743 148.166 202.415 147.929L208.714 141.392H205.522L200.086 147.658H199.451V141.392H196.86ZM222.608 149.097C222.633 148.826 222.692 148.411 222.692 147.869C222.692 145.211 221.439 141.062 216.723 141.062C212.506 141.062 209.941 144.491 209.941 148.851C209.941 153.221 212.599 156.142 217.053 156.142C219.348 156.142 220.931 155.668 221.863 155.244L221.414 153.365C220.423 153.788 219.289 154.11 217.409 154.11C214.784 154.11 212.506 152.653 212.447 149.097H222.608ZM212.481 147.209C212.693 145.388 213.853 142.941 216.511 142.941C219.466 142.941 220.186 145.541 220.161 147.209H212.481ZM235.808 153.339C235.063 153.661 234.072 154.05 232.582 154.05C229.712 154.05 227.561 151.993 227.561 148.648C227.561 145.625 229.356 143.178 232.667 143.178C234.106 143.178 235.088 143.509 235.715 143.864L236.316 141.832C235.596 141.476 234.225 141.087 232.667 141.087C227.951 141.087 224.902 144.313 224.902 148.767C224.902 153.187 227.739 156.142 232.1 156.142C234.047 156.142 235.563 155.668 236.257 155.304L235.808 153.339ZM239.263 141.392V155.845H242.286C243.835 153.305 245.419 150.528 246.79 148.284C247.628 146.828 248.255 145.659 249.186 143.805H249.271C249.153 146.133 249.093 147.361 249.093 149.724V155.845H251.6V141.392H248.526L244.013 148.851C243.065 150.528 242.557 151.544 241.684 153.305L241.6 153.28C241.718 151.214 241.744 149.783 241.744 147.48V141.392H239.263ZM266.537 141.51C265.284 141.358 263.607 141.206 261.88 141.206C259.992 141.206 258.23 141.51 257.037 142.196C255.927 142.823 255.123 143.839 255.123 145.329C255.123 147.539 257.07 148.708 258.95 148.919V149.004C258.29 149.122 257.756 149.453 257.307 149.842C256.02 150.917 255.665 152.797 255.038 154.203C254.767 154.829 254.471 155.371 254.141 155.845H256.943C257.155 155.49 257.367 155.1 257.545 154.652C258.112 153.246 258.501 151.451 259.577 150.587C260.144 150.079 260.889 149.783 261.998 149.783H263.937V155.845H266.537V141.51ZM263.937 147.988C263.336 147.988 262.769 147.988 261.694 147.988C260.144 147.988 257.841 147.336 257.841 145.481C257.841 143.475 259.966 142.975 261.753 142.975C262.684 142.975 263.277 143.034 263.937 143.119V147.988Z" fill="#562211"/>
</svg>
