<svg width="126" height="126" viewBox="0 0 126 126" fill="none" xmlns="http://www.w3.org/2000/svg">
<mask id="mask0_55_1145" style="mask-type:luminance" maskUnits="userSpaceOnUse" x="54" y="24" width="22" height="39">
<path d="M75.4882 24.2188H54.782V62.6787H75.4882V24.2188Z" fill="white"/>
</mask>
<g mask="url(#mask0_55_1145)">
<path d="M66.5889 56.486L63.6292 53.5293L60.6589 56.486L63.6184 62.6792L66.5889 56.486Z" fill="#F7B217"/>
<path d="M63.6078 36.4863C62.467 36.4863 61.5415 37.4109 61.5415 38.5507C61.5415 39.6904 62.467 40.6152 63.6078 40.6152C64.7486 40.6152 65.674 39.6904 65.674 38.5507C65.674 37.4109 64.7486 36.4863 63.6078 36.4863Z" fill="#019934"/>
<path d="M63.6176 27.2402C62.9933 27.5627 54.782 31.8957 54.782 38.82C54.782 44.7444 59.614 53.733 59.614 53.733L63.6176 49.7226L67.621 53.733C67.621 53.733 72.4532 44.7444 72.4532 38.82C72.4641 31.8957 64.2526 27.5627 63.6176 27.2402ZM66.2651 47.0239L63.6176 44.3788L60.9701 47.0239C60.8302 46.6583 59.0653 41.8628 59.0653 38.7341C59.0653 34.5193 63.3054 32.1539 63.6176 31.9818C63.9404 32.1539 68.17 34.5193 68.17 38.7341C68.1808 41.8628 66.405 46.6583 66.2651 47.0239Z" fill="#019934"/>
<path d="M72.4662 24.2139L69.4451 27.2322L72.4662 30.2504L75.4874 27.2322L72.4662 24.2139Z" fill="#019934"/>
</g>
<path d="M54.5421 71.74V74.4671H53.0895V73.0256H47.3867V66.208H48.9562V71.74H51.9977V66.208H53.5672V71.74H54.5421ZM60.8671 71.7595V73.0256H55.5834V66.208H60.7404V67.4741H57.153V68.9545H60.3212V70.1817H57.153V71.7595H60.8671ZM68.4012 66.208V73.0256H66.822V70.2304H63.7219V73.0256H62.1427V66.208H63.7219V68.8961H66.822V66.208H68.4012ZM75.3266 67.4936H73.1429V73.0256H71.5832V67.4936H69.4092V66.208H75.3266V67.4936ZM79.2719 66.208C79.8763 66.208 80.3995 66.3086 80.8414 66.5099C81.2899 66.7112 81.6343 66.9969 81.8748 67.367C82.1153 67.7371 82.2355 68.1754 82.2355 68.6818C82.2355 69.1818 82.1153 69.6201 81.8748 69.9967C81.6343 70.3668 81.2899 70.6524 80.8414 70.8537C80.3995 71.0485 79.8763 71.1459 79.2719 71.1459H77.8974V73.0256H76.3181V66.208H79.2719ZM79.1842 69.8603C79.6586 69.8603 80.0193 69.7597 80.2663 69.5584C80.5132 69.3506 80.6367 69.0584 80.6367 68.6818C80.6367 68.2987 80.5132 68.0066 80.2663 67.8053C80.0193 67.5975 79.6586 67.4936 79.1842 67.4936H77.8974V69.8603H79.1842ZM26.0571 81.1007H24.9653V83.8472H23.3958V77.0296H24.9653V79.7859H26.0961L27.8898 77.0296H29.5568L27.3244 80.3215L29.6251 83.8472H27.8313L26.0571 81.1007ZM33.5923 83.9641C32.8839 83.9641 32.2437 83.8115 31.6718 83.5063C31.1064 83.2012 30.6612 82.7824 30.3363 82.25C30.0178 81.711 29.8586 81.1072 29.8586 80.4384C29.8586 79.7696 30.0178 79.169 30.3363 78.6366C30.6612 78.0977 31.1064 77.6757 31.6718 77.3705C32.2437 77.0653 32.8839 76.9127 33.5923 76.9127C34.3007 76.9127 34.9376 77.0653 35.503 77.3705C36.0684 77.6757 36.5136 78.0977 36.8385 78.6366C37.1635 79.169 37.326 79.7696 37.326 80.4384C37.326 81.1072 37.1635 81.711 36.8385 82.25C36.5136 82.7824 36.0684 83.2012 35.503 83.5063C34.9376 83.8115 34.3007 83.9641 33.5923 83.9641ZM33.5923 82.6201C33.9952 82.6201 34.3592 82.5292 34.6841 82.3474C35.0091 82.1591 35.2625 81.8993 35.4445 81.5682C35.633 81.2371 35.7272 80.8605 35.7272 80.4384C35.7272 80.0164 35.633 79.6398 35.4445 79.3086C35.2625 78.9775 35.0091 78.721 34.6841 78.5392C34.3592 78.3509 33.9952 78.2568 33.5923 78.2568C33.1893 78.2568 32.8254 78.3509 32.5004 78.5392C32.1755 78.721 31.9188 78.9775 31.7303 79.3086C31.5483 79.6398 31.4574 80.0164 31.4574 80.4384C31.4574 80.8605 31.5483 81.2371 31.7303 81.5682C31.9188 81.8993 32.1755 82.1591 32.5004 82.3474C32.8254 82.5292 33.1893 82.6201 33.5923 82.6201ZM44.7524 83.8472L44.7426 79.7664L42.7344 83.1265H42.0326L40.0244 79.8443V83.8472H38.5426V77.0296H39.8489L42.403 81.2663L44.9181 77.0296H46.2244L46.2342 83.8472H44.7524ZM54.1489 77.0296V83.8472H52.5794V78.3152H49.4988V83.8472H47.9293V77.0296H54.1489ZM61.1243 82.5811V83.8472H55.8406V77.0296H60.9976V78.2957H57.4101V79.7761H60.5784V81.0033H57.4101V82.5811H61.1243ZM67.6153 78.3152H65.4316V83.8472H63.8719V78.3152H61.6979V77.0296H67.6153V78.3152ZM73.8905 82.5811V83.8472H68.6068V77.0296H73.7638V78.2957H70.1763V79.7761H73.3446V81.0033H70.1763V82.5811H73.8905ZM81.4248 77.0296V83.8472H79.8456V81.052H76.7455V83.8472H75.1663V77.0296H76.7455V79.7177H79.8456V77.0296H81.4248ZM90.2899 82.5616V85.2887H88.8374V83.8472H83.1345V77.0296H84.704V82.5616H87.7456V77.0296H89.3151V82.5616H90.2899ZM91.3313 77.0296H92.9008V81.4708L96.1568 77.0296H97.6386V83.8472H96.0788V79.4158L92.8228 83.8472H91.3313V77.0296ZM99.3376 77.0296H100.907V81.4708L104.163 77.0296H105.645V83.8472H104.085V79.4158L100.829 83.8472H99.3376V77.0296ZM102.486 76.5913C101.239 76.5913 100.608 76.0946 100.595 75.1012H101.677C101.69 75.5752 101.96 75.8122 102.486 75.8122C102.746 75.8122 102.945 75.7537 103.081 75.6369C103.218 75.5135 103.289 75.335 103.296 75.1012H104.378C104.371 75.5882 104.212 75.9583 103.9 76.2115C103.588 76.4647 103.117 76.5913 102.486 76.5913Z" fill="#019934"/>
<path d="M1.09781 52.2301L0.836291 52.974L0.444336 52.8915L0.684301 51.7533C0.726545 51.5529 0.768767 51.2923 0.811011 50.9716C0.848142 50.6748 0.881416 50.4569 0.910857 50.3173C1.07723 49.528 1.32818 48.9847 1.66373 48.6876C2.00053 48.3843 2.41809 48.2852 2.91639 48.39C3.34177 48.4796 3.6875 48.6759 3.95359 48.9791C4.21487 49.2752 4.34262 49.6474 4.33684 50.0965C4.43891 49.5219 4.66969 49.1044 5.02922 48.844C5.39002 48.5776 5.81653 48.4962 6.30877 48.5997C6.91645 48.7276 7.36932 49.0479 7.66737 49.5609C7.96671 50.0678 8.01398 50.8069 7.80922 51.7782C7.78491 51.8936 7.73979 52.0773 7.67389 52.3299C7.58303 52.6405 7.50816 52.9355 7.4493 53.2147L7.21317 54.3347L6.82122 54.2523L6.90427 53.4519L1.09781 52.2301ZM3.77105 52.0128C3.79761 51.9169 3.84096 51.7263 3.90112 51.441L4.0163 50.8945C4.11357 50.4331 4.06929 50.0561 3.88349 49.7632C3.69768 49.4706 3.37994 49.2769 2.93025 49.1823C2.48663 49.089 2.13592 49.1421 1.87813 49.3414C1.62159 49.5347 1.4319 49.9227 1.30903 50.5056C1.26297 50.7242 1.22777 50.9514 1.20344 51.1871C1.18488 51.3354 1.17177 51.4278 1.16408 51.4642L3.77105 52.0128ZM7.07992 52.7089C7.16181 52.5613 7.25843 52.2234 7.36978 51.6953C7.5131 51.0153 7.48916 50.4967 7.29792 50.1394C7.10061 49.7808 6.75887 49.5505 6.27272 49.4481C5.78657 49.3457 5.4066 49.4022 5.13279 49.6171C4.85292 49.831 4.65154 50.2292 4.52869 50.8121L4.38664 51.486C4.31753 51.8139 4.27642 52.0239 4.26329 52.1163L7.07992 52.7089Z" fill="#623B2A"/>
<path d="M11.3478 40.8165C11.0844 41.4259 10.721 41.891 10.2578 42.2116C9.79458 42.5321 9.26571 42.6992 8.67123 42.7131C8.07674 42.7271 7.4488 42.5912 6.78744 42.3059C6.16601 42.038 5.66796 41.6642 5.29336 41.185C4.91874 40.7059 4.69716 40.1778 4.6286 39.6008C4.55434 39.0212 4.6403 38.4467 4.88648 37.8771C5.01204 37.5866 5.15547 37.3174 5.31678 37.0694C5.48055 36.8155 5.61809 36.6146 5.7294 36.4668C5.84071 36.3188 5.91068 36.2272 5.93932 36.1924L7.30377 36.862L7.11174 37.3064L6.03845 37.0663C5.9274 37.1198 5.79823 37.2466 5.65089 37.4466C5.50358 37.6466 5.36099 37.9061 5.22313 38.2251C5.05327 38.6182 5.00896 39.0179 5.0902 39.4248C5.16576 39.8291 5.3694 40.2109 5.70111 40.5702C6.03529 40.9238 6.48745 41.2238 7.05758 41.4696C7.59351 41.7008 8.11993 41.8367 8.6368 41.8772C9.15614 41.912 9.62158 41.8289 10.0331 41.6281C10.4389 41.4246 10.7428 41.0894 10.9446 40.6223C11.085 40.2977 11.1689 40.0332 11.1963 39.8287C11.2181 39.6217 11.2048 39.4337 11.1563 39.264L10.5001 38.5755L10.7409 38.1827L11.7946 38.8906C11.7412 39.0298 11.7069 39.211 11.6916 39.4341C11.6713 39.6687 11.6377 39.8873 11.5907 40.0901C11.5494 40.2953 11.4684 40.5375 11.3478 40.8165Z" fill="#623B2A"/>
<path d="M9.40934 31.427C10.0108 30.5145 10.6066 29.9983 11.1965 29.8784C11.7811 29.7555 12.3649 29.8717 12.9479 30.2275C13.3136 30.4507 13.5886 30.7565 13.773 31.1454C13.9553 31.5257 14.0312 31.961 14.0008 32.4512C13.965 32.9384 13.8151 33.4394 13.5512 33.9543L14.1951 34.3473L14.784 33.6162L15.1179 33.8199L13.7778 36.0119L13.428 35.7985L13.8181 34.946L13.1901 34.5629C12.5898 35.4615 11.9851 35.9686 11.376 36.084C10.7669 36.1996 10.1656 36.0762 9.57204 35.7139C9.20636 35.4907 8.93765 35.1923 8.76592 34.8185C8.58891 34.4415 8.52359 34.0127 8.56997 33.532C8.61638 33.0516 8.7758 32.5527 9.04828 32.0356L8.46794 31.6813L7.88701 32.4174L7.54517 32.2088L8.88041 30.0247L9.22226 30.2334L8.83695 31.0777L9.40934 31.427ZM9.33447 32.2101C8.9852 32.8767 8.88554 33.4266 9.0355 33.8597C9.18545 34.293 9.49892 34.6551 9.97591 34.9462C10.4741 35.2501 10.9683 35.3882 11.4584 35.36C11.9486 35.3321 12.4198 35.0016 12.8721 34.3688L9.33447 32.2101ZM13.2411 33.7651C13.5786 33.1061 13.6644 32.5551 13.4986 32.112C13.336 31.6638 13.0029 31.2861 12.4995 30.979C12.0119 30.6814 11.5362 30.5548 11.0726 30.5989C10.6122 30.6379 10.1584 30.9753 9.71144 31.6114L13.2411 33.7651Z" fill="#623B2A"/>
<path d="M13.0574 25.1214L12.4818 25.6608L12.1721 25.4069L15.0974 21.8457L16.2386 22.613L15.955 22.9582L15.1041 22.5857L13.4844 24.4842L15.5798 26.2023L16.6455 24.8608L16.1247 24.2773L16.4202 23.9176L18.0115 25.2225L17.716 25.582L17.0272 25.1738L15.9182 26.4797L18.1361 28.2982L19.8867 26.0497L19.2882 24.9446L19.6798 24.6879L20.7134 25.9088L17.5105 29.8078L17.2008 29.5539L17.6443 28.8821L13.0574 25.1214Z" fill="#623B2A"/>
<path d="M18.041 19.3831L17.4318 19.824L17.1548 19.5349L17.9689 18.7562C18.0677 18.6618 18.1619 18.5673 18.2518 18.4727C18.3419 18.3694 18.4095 18.2962 18.4543 18.2533C18.6703 18.0123 18.8861 17.7888 19.1014 17.5829C19.734 16.9779 20.2942 16.6698 20.7819 16.6585C21.2699 16.6384 21.7394 16.8636 22.1902 17.3342C22.5295 17.6883 22.7385 18.0768 22.8171 18.4998C22.8958 18.9228 22.8557 19.3432 22.6973 19.761C22.5346 20.1744 22.2738 20.5527 21.9149 20.8957C21.7712 21.0332 21.6211 21.1725 21.4643 21.3139C21.3076 21.4465 21.2114 21.5255 21.1759 21.5511L22.6898 23.131L23.6893 22.3036L23.9664 22.5928L21.9006 24.5684L21.6237 24.2794L22.1443 23.6654L18.041 19.3831ZM20.8603 21.2217C20.9896 21.1323 21.2403 20.9096 21.6127 20.5535C21.9985 20.1845 22.2116 19.7745 22.2524 19.3234C22.2886 18.8678 22.0706 18.3936 21.5981 17.9005C21.2244 17.5106 20.8529 17.3336 20.4831 17.3694C20.109 17.4008 19.6954 17.6331 19.2425 18.0665C19.1034 18.1995 18.9572 18.3564 18.804 18.5374C18.6779 18.6751 18.5926 18.7654 18.5477 18.8083L20.8603 21.2217Z" fill="#623B2A"/>
<path d="M23.6466 14.3084L22.9592 14.6955L22.7188 14.3754L26.4076 11.6113L27.3335 12.6276L26.9758 12.8956L26.2382 12.3317L24.2129 13.7909L25.8394 15.9575L27.1938 14.9077L26.8268 14.2172L27.1994 13.938L28.4346 15.5834L28.062 15.8626L27.4901 15.3023L26.1021 16.3074L27.8235 18.6006L30.0592 16.8323L29.7407 15.6169L30.1822 15.4606L30.8958 16.8919L26.8567 19.9184L26.6162 19.5982L27.207 19.051L23.6466 14.3084Z" fill="#623B2A"/>
<path d="M38.8419 12.4723C38.242 12.7579 37.6621 12.8692 37.1021 12.8059C36.5423 12.7427 36.0339 12.5208 35.5772 12.1404C35.1205 11.7599 34.7371 11.2448 34.4271 10.5952C34.1359 9.98471 34.007 9.37591 34.0406 8.76879C34.0744 8.16166 34.2553 7.61835 34.5839 7.13887C34.9097 6.65378 35.3528 6.27775 35.9134 6.01076C36.1994 5.8746 36.4847 5.76617 36.7695 5.6855C37.06 5.60215 37.2957 5.54136 37.4771 5.50314C37.6584 5.46491 37.7713 5.44206 37.8159 5.43457L38.4021 6.83595L37.9647 7.0442L37.3148 6.1578C37.1959 6.12505 37.0152 6.13553 36.7726 6.18925C36.5299 6.24297 36.2516 6.34458 35.9377 6.49409C35.5508 6.67832 35.254 6.95024 35.0473 7.30991C34.8378 7.66397 34.7397 8.08534 34.7527 8.57403C34.7713 9.06002 34.9143 9.58306 35.1814 10.1431C35.4327 10.6696 35.7394 11.118 36.1019 11.4883C36.4699 11.856 36.8753 12.0995 37.3174 12.2189C37.757 12.3326 38.2065 12.28 38.6662 12.061C38.9857 11.9088 39.2231 11.7648 39.3785 11.629C39.5312 11.4875 39.6451 11.3371 39.7203 11.1775L39.6798 10.2276L40.12 10.0902L40.4469 11.316C40.315 11.3857 40.1698 11.4996 40.0113 11.6575C39.8414 11.8209 39.6722 11.9634 39.5032 12.0851C39.3369 12.2124 39.1163 12.3415 38.8419 12.4723Z" fill="#623B2A"/>
<path d="M43.2812 12.2341L42.6235 12.4695L42.0698 3.19728L42.7275 2.96191L43.2812 12.2341Z" fill="#623B2A"/>
<path d="M48.1173 5.29936L45.5582 2.90142L44.834 2.95085L44.7454 2.56056L47.2891 1.98472L47.3777 2.37501L46.4758 2.69371L48.5557 4.78979L49.5081 1.99773L48.6677 2.08298L48.5793 1.69269L50.7505 1.20117L50.8391 1.59146L50.146 1.86285L48.869 5.03377L51.6187 7.5985L52.3642 7.51565L52.4525 7.90594L49.9179 8.47972L49.8293 8.08943L50.7013 7.80621L48.4509 5.54832L47.4578 8.54041L48.4121 8.41027L48.5007 8.80056L46.1112 9.34142L46.0228 8.95113L46.7947 8.69053L48.1173 5.29936Z" fill="#623B2A"/>
<path d="M63.0002 3.39648C63.2032 3.49349 63.4231 3.69628 63.6592 4.00492C63.8958 4.30734 64.1826 4.72245 64.5203 5.25022C64.7736 5.64606 64.9789 5.95099 65.1362 6.165C65.2937 6.37281 65.425 6.49326 65.5298 6.52631L65.8912 6.62636L65.8836 7.02648L64.9337 7.00815C64.797 7.00551 64.6349 6.87829 64.4471 6.62645C64.2595 6.3684 64.0123 5.9851 63.7054 5.47653C63.3685 4.90532 63.0912 4.4749 62.8733 4.18523C62.6551 3.89557 62.4593 3.74907 62.2853 3.74572L61.5962 3.73243L61.5436 6.44945L62.3614 6.5676L62.3538 6.95841L60.0254 6.9135L60.0332 6.50408L60.8079 6.43525L60.9223 0.517372L60.1513 0.400107L60.1588 0L62.4686 0.0445417L62.461 0.444651L61.6579 0.531549L61.604 3.323L62.4796 3.33989L64.5452 0.587237L63.7183 0.468892L63.7259 0.0687886L65.9053 0.110815L65.8977 0.510923L65.1878 0.599617L63.0002 3.39648Z" fill="#623B2A"/>
<path d="M71.9357 7.79061C71.3432 7.68238 70.8594 7.44579 70.4842 7.08082C70.1164 6.71088 69.8698 6.24644 69.7448 5.6875C69.6198 5.12856 69.6198 4.50729 69.7451 3.82374C69.8735 3.12187 70.1207 2.52999 70.4866 2.04811C70.8536 1.56012 71.2955 1.2151 71.8124 1.01304C72.3302 0.804899 72.8733 0.752695 73.4415 0.856474C74.0461 0.966941 74.5368 1.2016 74.9129 1.56044C75.2952 1.92041 75.5496 2.37682 75.6756 2.92968C75.8078 3.48361 75.8108 4.10542 75.6847 4.79511C75.5552 5.50308 75.3032 6.10355 74.9289 6.59654C74.5556 7.0834 74.1072 7.43036 73.5832 7.6374C73.0591 7.84442 72.51 7.8955 71.9357 7.79061ZM73.2801 1.27168C72.6265 1.15229 72.0587 1.32295 71.5767 1.78363C71.0958 2.2382 70.7632 2.969 70.5789 3.97604C70.4716 4.56197 70.4587 5.09885 70.5399 5.58671C70.6209 6.07459 70.797 6.4757 71.0676 6.79005C71.3384 7.10442 71.6937 7.30176 72.1337 7.3821C72.5613 7.46021 72.9551 7.41231 73.3152 7.23841C73.6763 7.0584 73.9887 6.7496 74.2517 6.31201C74.5149 5.87443 74.7086 5.3169 74.8325 4.63945C74.9408 4.04744 74.9532 3.51359 74.8698 3.03794C74.7876 2.55616 74.6104 2.16115 74.3386 1.85291C74.0728 1.54577 73.7201 1.35202 73.2801 1.27168Z" fill="#623B2A"/>
<path d="M80.4916 9.87146C79.9235 9.67065 79.4836 9.36035 79.1712 8.94054C78.8666 8.51696 78.697 8.01934 78.6625 7.44765C78.6279 6.87597 78.7264 6.2626 78.9587 5.60753C79.197 4.93492 79.5349 4.38973 79.9727 3.97197C80.4127 3.54835 80.9038 3.27776 81.4463 3.1602C81.9907 3.03679 82.5351 3.07135 83.0795 3.26387C83.659 3.46881 84.1061 3.77826 84.4204 4.19221C84.7408 4.60826 84.9193 5.09917 84.9562 5.66501C84.9986 6.23291 84.9029 6.84731 84.6687 7.50823C84.4282 8.1867 84.0842 8.73962 83.6364 9.16701C83.1906 9.58856 82.6926 9.85998 82.1423 9.98134C81.5921 10.1027 81.0418 10.066 80.4916 9.87146ZM82.8544 3.64827C82.2279 3.42676 81.6402 3.50521 81.091 3.88364C80.544 4.25623 80.0997 4.92505 79.7576 5.8901C79.5587 6.45159 79.4606 6.97962 79.4634 7.47417C79.466 7.96874 79.5761 8.39266 79.7934 8.74597C80.0109 9.09925 80.3302 9.35044 80.7517 9.49947C81.1616 9.6444 81.5581 9.65955 81.9413 9.54495C82.3265 9.42448 82.6837 9.16909 83.013 8.77875C83.3425 8.38844 83.6219 7.86866 83.852 7.21945C84.053 6.65211 84.1501 6.12701 84.1434 5.64415C84.1386 5.15544 84.0264 4.73736 83.8069 4.3899C83.5933 4.04454 83.2757 3.79731 82.8544 3.64827Z" fill="#623B2A"/>
<path d="M95.3017 8.92188L95.1095 9.273L94.3365 8.97804L91.4986 14.1631L92.2467 14.6779L92.0545 15.029L89.8886 13.8458L90.0808 13.4947L90.8366 13.8015L93.6836 8.60004L90.8474 7.05065L87.9961 12.2602L88.7569 12.7713L88.5645 13.1224L86.4233 11.9526L86.6155 11.6015L87.3341 11.8986L90.1811 6.69715L89.511 6.2144L89.7032 5.86328L95.3017 8.92188Z" fill="#623B2A"/>
<path d="M98.6201 11.6639L98.0536 11.115L98.2927 10.7939L101.992 13.5445L101.279 14.7197L100.92 14.453L101.252 13.5863L99.2773 12.0598L97.6589 14.2323L99.0505 15.2323L99.6092 14.6849L99.9829 14.9627L98.7537 16.6126L98.38 16.3348L98.7557 15.628L97.3974 14.5832L95.6842 16.8826L98.0154 18.5232L99.0917 17.8734L99.367 18.2521L98.1955 19.3415L94.1453 16.3298L94.3844 16.0088L95.0772 16.4194L98.6201 11.6639Z" fill="#623B2A"/>
<path d="M104.623 16.386L104.154 15.7989L104.43 15.5088L105.247 16.2846C105.346 16.3786 105.445 16.4682 105.543 16.5535C105.651 16.6385 105.727 16.7024 105.772 16.7452C106.023 16.9494 106.257 17.1541 106.473 17.3593C107.108 17.962 107.442 18.5064 107.477 18.9927C107.52 19.4787 107.317 19.9579 106.868 20.43C106.53 20.7854 106.151 21.0122 105.732 21.1107C105.313 21.2091 104.89 21.189 104.465 21.0507C104.044 20.9079 103.654 20.6655 103.294 20.3235C103.15 20.1867 103.003 20.0434 102.854 19.8934C102.714 19.7435 102.631 19.6513 102.603 19.6168L101.096 21.2022L101.97 22.1608L101.694 22.4508L99.6211 20.4826L99.8971 20.1926L100.536 20.6832L104.623 16.386ZM102.918 19.2863C103.013 19.4111 103.248 19.6509 103.622 20.0058C104.009 20.3733 104.429 20.5668 104.882 20.5858C105.339 20.6005 105.803 20.3605 106.273 19.8659C106.646 19.4746 106.805 19.0953 106.752 18.728C106.703 18.3563 106.451 17.9545 105.996 17.5228C105.857 17.3903 105.693 17.2519 105.505 17.1074C105.361 16.9882 105.267 16.9072 105.222 16.8645L102.918 19.2863Z" fill="#623B2A"/>
<path d="M111.64 22.8447L112.113 23.4434L108.463 29.3046L108.773 29.8312L108.459 30.0792L107.049 28.298L107.363 28.0497L107.937 28.6403L108.793 27.3357L106.991 25.058L105.53 25.583L105.971 26.2903L105.657 26.5386L104.357 24.8961L104.671 24.6478L105.106 25.0632L111.64 22.8447ZM110.849 24.157L111.382 23.4042L110.51 23.7728L107.469 24.8818L109.069 26.9041L110.849 24.157Z" fill="#623B2A"/>
<path d="M113.793 37.8355C113.581 37.9264 113.247 38.0673 112.792 38.2584C112.334 38.4582 111.998 38.6006 111.782 38.6859L111.536 38.2478C111.728 38.1329 111.976 37.9795 112.281 37.787C112.586 37.5946 112.812 37.4507 112.957 37.3548L110.094 32.2583L110.435 32.067L110.979 32.8076L116.137 29.915L115.83 29.1588L116.179 28.9629L117.401 31.1378L117.052 31.3337L116.502 30.5643L111.328 33.466L112.878 36.2253L118.052 33.3236L117.786 32.6403L118.135 32.4444L119.243 34.4165L118.894 34.6124L118.422 33.9809L113.256 36.878L113.793 37.8355Z" fill="#623B2A"/>
<path d="M121.818 40.1838L121.442 40.3215L121.022 39.4744L116.43 41.1562L117.871 41.5404L122.051 43.0621L122.304 42.9693L122.109 42.1391L122.485 42.0012L123.299 44.2205L122.923 44.3584L122.564 43.677L116.993 45.718L117.196 46.5158L116.82 46.6536L115.987 44.3817L116.363 44.2439L116.733 45.0103L121.395 43.3026L120.07 42.965L115.792 41.3902L115.45 41.5151L115.68 42.3828L115.303 42.5206L114.463 40.2314L114.839 40.0936L115.194 40.8162L120.765 38.7753L120.598 38.0236L120.974 37.8857L121.818 40.1838Z" fill="#623B2A"/>
<path d="M124.776 50.0215L124.383 50.0964L124.106 49.1924L119.302 50.1079L120.661 50.7204L124.539 52.8996L124.804 52.849L124.746 51.998L125.139 51.9231L125.583 54.245L125.189 54.3201L124.946 53.5896L119.117 54.7004L119.188 55.5204L118.795 55.5955L118.341 53.2187L118.734 53.1436L118.975 53.9597L123.853 53.0304L122.6 52.4826L118.634 50.2352L118.277 50.3031L118.362 51.1963L117.969 51.2714L117.512 48.8762L117.905 48.8013L118.138 49.5718L123.966 48.4611L123.924 47.6923L124.317 47.6172L124.776 50.0215Z" fill="#623B2A"/>
<path d="M6.9859 63.4448L6.5855 63.4556L6.45764 62.5187L1.56893 62.6507L2.81193 63.4738L6.28825 66.2474L6.55831 66.24L6.63784 65.3907L7.03824 65.3799L7.10217 67.7429L6.70177 67.7538L6.5787 66.9936L0.647042 67.1538L0.585367 67.9747L0.184962 67.9856L0.119539 65.5667L0.519943 65.5559L0.626657 66.4002L5.58987 66.2662L4.44225 65.5245L0.889152 62.6691L0.525987 62.6789L0.466348 63.5742L0.0659433 63.5851L0 61.1476L0.400404 61.1368L0.505862 61.9348L6.43752 61.7746L6.51932 61.0089L6.91972 60.998L6.9859 63.4448Z" fill="#623B2A"/>
<path d="M9.66757 80.5266L9.28138 80.6326L8.95617 79.8727L3.25282 81.4399L3.40265 82.3351L3.01643 82.4411L2.36174 80.0634L2.74794 79.9571L3.0527 80.7131L8.77402 79.141L7.91674 76.0271L2.18642 77.6019L2.3477 78.5036L1.96149 78.6096L1.31421 76.2585L1.70042 76.1525L1.98632 76.8751L7.70764 75.3027L7.58901 74.4859L7.97523 74.3799L9.66757 80.5266Z" fill="#623B2A"/>
<path d="M5.20866 88.4077C4.95756 87.8608 4.87407 87.3291 4.95816 86.8126C5.05052 86.2995 5.28998 85.8313 5.67661 85.4086C6.06323 84.9857 6.57267 84.6295 7.2049 84.3397C7.85406 84.0423 8.48115 83.9053 9.08617 83.9282C9.69681 83.9488 10.2332 84.1127 10.6952 84.4198C11.1629 84.7243 11.5171 85.1388 11.7579 85.6632C12.0141 86.2216 12.1031 86.7577 12.0246 87.2713C11.9487 87.7907 11.7203 88.2606 11.3393 88.6809C10.9609 89.1066 10.4528 89.4659 9.81492 89.7581C9.1601 90.058 8.52326 90.1963 7.90438 90.1725C7.29114 90.1463 6.74938 89.9782 6.27909 89.6683C5.8088 89.3581 5.452 88.938 5.20866 88.4077ZM11.325 85.7694C11.048 85.166 10.5824 84.7992 9.92818 84.6689C9.27964 84.536 8.48966 84.6827 7.55825 85.1095C7.01634 85.3578 6.56864 85.6552 6.21516 86.0015C5.8617 86.3475 5.63371 86.7217 5.53125 87.1234C5.42878 87.5254 5.47072 87.9294 5.65711 88.3355C5.8383 88.7302 6.10349 89.025 6.45259 89.22C6.80735 89.4124 7.2396 89.491 7.74934 89.4553C8.25906 89.4198 8.82722 89.2583 9.45379 88.9713C10.0014 88.7205 10.4462 88.4244 10.7884 88.0833C11.1362 87.7398 11.3586 87.3682 11.4554 86.9689C11.5548 86.5752 11.5113 86.1755 11.325 85.7694Z" fill="#623B2A"/>
<path d="M12.0527 99.3178C11.8478 99.4245 11.5275 99.5933 11.0919 99.8242C10.6511 100.059 10.3266 100.227 10.1182 100.328L9.83892 99.9104C10.6842 99.2868 11.1318 98.9509 11.1817 98.9027L8.75592 95.2727L8.09211 95.5363C7.92164 95.6053 7.74944 95.6716 7.57553 95.7354C7.40506 95.8044 7.26643 95.8594 7.15968 95.901L6.88037 95.4828L8.74758 94.3717L9.13033 94.9446C9.34909 94.9703 9.68407 94.9407 10.1353 94.856C10.5951 94.7731 11.1763 94.587 11.8789 94.2974C12.5866 94.0044 13.3588 93.5789 14.1955 93.0209L14.7301 92.6642L14.2877 91.818L14.6208 91.5957L17.4293 95.7986L17.0962 96.0209L16.5248 95.3501L11.5975 98.6367L12.0527 99.3178ZM14.4335 93.4776C13.6932 93.9788 12.9812 94.3827 12.2977 94.6896C11.6227 94.998 11.0441 95.216 10.5619 95.3437C10.0832 95.4765 9.73702 95.5395 9.52341 95.5328L11.1785 98.0097L16.1265 94.7206L15.03 93.0796L14.4335 93.4776Z" fill="#623B2A"/>
<path d="M18.5199 107.013C18.3347 107.151 18.0457 107.369 17.6525 107.667C17.2549 107.968 16.9613 108.186 16.7719 108.32L16.4294 107.951C17.1641 107.201 17.5522 106.798 17.5938 106.743L14.6189 103.546L14.0057 103.912C13.8485 104.008 13.6891 104.101 13.5276 104.191C13.3704 104.287 13.2424 104.363 13.1436 104.421L12.801 104.053L14.4666 102.658L14.936 103.163C15.1561 103.153 15.4821 103.07 15.914 102.915C16.3546 102.76 16.8986 102.483 17.5457 102.085C18.1976 101.683 18.8919 101.14 19.6287 100.455L20.0994 100.018L19.5273 99.2532L19.8206 98.9805L23.2651 102.681L22.9718 102.954L22.3004 102.383L17.9617 106.413L18.5199 107.013ZM19.9365 100.868C19.286 101.481 18.6478 101.993 18.0219 102.405C17.4049 102.818 16.8686 103.125 16.413 103.328C15.9617 103.536 15.63 103.653 15.4181 103.681L17.448 105.862L21.8067 101.825L20.4619 100.38L19.9365 100.868Z" fill="#623B2A"/>
<path d="M25.7033 105.663L25.1613 105.089L25.4143 104.779L28.9892 107.689L28.2256 108.832L27.8787 108.55L28.2485 107.698L26.3426 106.087L24.6305 108.187L25.9769 109.246L26.5592 108.724L26.9204 109.018L25.6201 110.613L25.259 110.319L25.6652 109.629L24.3539 108.526L22.542 110.748L24.7989 112.489L25.9026 111.887L26.1611 112.277L24.9429 113.314L21.0286 110.129L21.2814 109.818L21.9555 110.259L25.7033 105.663Z" fill="#623B2A"/>
<path d="M31.1489 109.875L30.5733 109.391L30.7872 109.053L31.7404 109.654C31.8558 109.726 31.9704 109.795 32.0842 109.859C32.2061 109.922 32.2936 109.97 32.3461 110.003C32.6325 110.154 32.9017 110.309 33.1537 110.468C33.8941 110.935 34.3289 111.403 34.4578 111.873C34.5954 112.342 34.4901 112.851 34.1422 113.402C33.8803 113.817 33.5534 114.113 33.1617 114.291C32.7698 114.47 32.3519 114.533 31.9078 114.48C31.467 114.423 31.0365 114.261 30.6162 113.996C30.4484 113.89 30.2766 113.778 30.1013 113.661C29.9347 113.541 29.8346 113.467 29.8013 113.438L28.6327 115.288L29.678 116.057L29.4644 116.395L27.0459 114.87L27.2597 114.532L27.982 114.888L31.1489 109.875ZM30.0448 113.053C30.1628 113.157 30.4399 113.346 30.8758 113.621C31.3275 113.905 31.7772 114.013 32.2252 113.943C32.6764 113.868 33.0844 113.542 33.4489 112.965C33.7373 112.509 33.8194 112.105 33.695 111.756C33.5742 111.401 33.2486 111.056 32.7182 110.721C32.5553 110.619 32.3675 110.515 32.1548 110.41C31.9906 110.321 31.8823 110.26 31.8296 110.227L30.0448 113.053Z" fill="#623B2A"/>
<path d="M40.5967 118.123C40.7486 118.289 40.8749 118.563 40.9756 118.943C41.0844 119.32 41.1942 119.806 41.3049 120.399C41.3976 120.878 41.475 121.241 41.5371 121.49C41.6075 121.736 41.6851 121.894 41.77 121.964L42.0675 122.193L41.9102 122.561L41.0278 122.184C40.9022 122.13 40.7997 121.951 40.7202 121.648C40.6433 121.338 40.558 120.89 40.4646 120.304C40.3669 119.648 40.2713 119.145 40.178 118.795C40.0846 118.445 39.9581 118.235 39.7982 118.167L39.1643 117.896L38.0953 120.395L38.8089 120.811L38.655 121.171L36.5136 120.256L36.6711 119.888L37.4235 120.119L38.4963 117.611L37.8537 117.337C37.6995 117.271 37.4594 117.327 37.1334 117.505C36.8156 117.68 36.3951 117.952 35.8719 118.323C35.3644 118.673 34.9759 118.925 34.7071 119.08C34.4383 119.235 34.2381 119.285 34.1066 119.229L33.2329 118.856L33.3904 118.488L33.7524 118.541C33.8618 118.554 34.0228 118.501 34.2355 118.383C34.4482 118.265 34.7688 118.067 35.1976 117.792C35.7116 117.458 36.1399 117.199 36.4822 117.014C36.8271 116.824 37.1148 116.728 37.3455 116.725L36.5175 113.285L35.8984 112.909L36.0557 112.541L38.0344 113.386L37.8771 113.754L37.1343 113.548L37.852 116.891L38.6572 117.235L39.7555 114.667L39.0762 114.266L39.2337 113.898L41.3664 114.809L41.2092 115.177L40.4236 114.953L39.3253 117.52L40.1305 117.864L43.0326 116.077L42.374 115.674L42.5315 115.306L44.5187 116.155L44.3614 116.523L43.6615 116.335L40.5967 118.123Z" fill="#623B2A"/>
<path d="M48.7593 120.745C48.936 120.884 49.1054 121.131 49.2677 121.484C49.4315 121.831 49.6197 122.299 49.8325 122.888C49.9919 123.33 50.1247 123.673 50.2311 123.916C50.3387 124.154 50.4401 124.3 50.535 124.355L50.8656 124.533L50.7696 124.921L49.847 124.694C49.7144 124.661 49.5844 124.501 49.457 124.214C49.331 123.921 49.1745 123.493 48.9876 122.929C48.7853 122.298 48.6098 121.817 48.4612 121.486C48.3126 121.156 48.1538 120.97 47.985 120.928L47.3156 120.763L46.6642 123.401L47.4356 123.697L47.3418 124.076L45.0808 123.519L45.1789 123.122L45.9497 123.225L47.3687 117.479L46.6425 117.194L46.7385 116.806L48.9813 117.358L48.8856 117.747L48.0831 117.655L47.4137 120.366L48.264 120.575L50.8868 118.346L50.1065 118.048L50.2023 117.659L52.3188 118.181L52.2228 118.57L51.5109 118.499L48.7593 120.745Z" fill="#623B2A"/>
<path d="M55.8927 118.684L55.8527 119.082L54.9062 119.09L54.4168 123.952L55.3917 122.824L58.5866 119.731L58.6137 119.463L57.7805 119.276L57.8206 118.878L60.1747 119.115L60.1347 119.513L59.3645 119.538L58.7705 125.437L59.5779 125.602L59.5378 126L57.128 125.758L57.1681 125.36L58.0199 125.361L58.5168 120.426L57.6347 121.469L54.3488 124.628L54.3124 124.989L55.1939 125.162L55.1538 125.56L52.7253 125.316L52.7654 124.917L53.5709 124.914L54.1649 119.016L53.4151 118.838L53.4552 118.439L55.8927 118.684Z" fill="#623B2A"/>
<path d="M70.1133 119.651C71.2008 119.537 71.9781 119.67 72.4451 120.05C72.9111 120.423 73.1912 120.948 73.2857 121.624C73.345 122.048 73.2827 122.454 73.0987 122.844C72.92 123.226 72.6315 123.56 72.2326 123.848C71.8329 124.129 71.3501 124.331 70.7842 124.454L70.8884 125.2L71.8277 125.191L71.8819 125.578L69.3356 125.934L69.2788 125.528L70.1861 125.289L70.0843 124.561C69.008 124.667 68.2321 124.521 67.7565 124.124C67.281 123.727 66.9951 123.184 66.8989 122.496C66.8397 122.072 66.9002 121.675 67.0806 121.305C67.26 120.929 67.5505 120.607 67.9519 120.338C68.3532 120.069 68.8404 119.876 69.4134 119.758L69.3193 119.085L68.3813 119.104L68.3261 118.707L70.8631 118.354L70.9185 118.75L70.0206 118.988L70.1133 119.651ZM69.4597 120.09C68.7223 120.243 68.2336 120.515 67.9935 120.905C67.7533 121.296 67.6718 121.768 67.7492 122.321C67.8298 122.899 68.0364 123.368 68.3692 123.729C68.7017 124.089 69.2563 124.244 70.0327 124.192L69.4597 120.09ZM70.734 124.094C71.4582 123.937 71.9391 123.654 72.1765 123.245C72.4202 122.835 72.5013 122.338 72.4198 121.754C72.3407 121.189 72.1371 120.741 71.8089 120.411C71.4868 120.08 70.9378 119.944 70.1623 120.002L70.734 124.094Z" fill="#623B2A"/>
<path d="M76.4818 118.003L75.7015 118.121L75.5908 117.736L80.0225 116.464L80.526 117.743L80.0964 117.866L79.6076 117.077L77.1954 117.721L77.9439 120.324L79.5836 119.824L79.4863 119.048L79.9341 118.92L80.5026 120.897L80.055 121.025L79.7199 120.298L78.0648 120.744L78.8572 123.499L81.5762 122.641L81.7112 121.392L82.1795 121.403L82.3368 122.994L77.4842 124.387L77.3737 124.003L78.1205 123.701L76.4818 118.003Z" fill="#623B2A"/>
<path d="M82.9229 115.996L82.1965 116.192L82.0405 115.823L83.0786 115.384C83.2045 115.331 83.3263 115.276 83.4439 115.22C83.565 115.155 83.654 115.111 83.7112 115.087C83.9989 114.938 84.2801 114.806 84.5546 114.69C85.3611 114.349 85.9943 114.26 86.4542 114.423C86.9176 114.577 87.2761 114.954 87.5302 115.554C87.7213 116.006 87.7783 116.443 87.7014 116.866C87.6243 117.29 87.4373 117.668 87.1405 118.003C86.8413 118.331 86.4631 118.592 86.0054 118.785C85.8225 118.863 85.6325 118.94 85.4356 119.016C85.2419 119.085 85.1239 119.124 85.0816 119.136L85.9343 121.15L87.1631 120.732L87.3192 121.1L84.6852 122.213L84.5292 121.845L85.2344 121.456L82.9229 115.996ZM84.9038 118.716C85.0563 118.678 85.37 118.559 85.8448 118.358C86.3366 118.15 86.6819 117.843 86.8803 117.436C87.0764 117.023 87.0413 116.502 86.7753 115.873C86.5647 115.376 86.2803 115.079 85.922 114.981C85.5613 114.877 85.092 114.948 84.5143 115.192C84.3371 115.267 84.1445 115.362 83.9369 115.476C83.7701 115.56 83.6581 115.614 83.6009 115.638L84.9038 118.716Z" fill="#623B2A"/>
<path d="M89.6806 113.016L88.7514 113.48L88.5378 113.142L90.3968 111.97L93.9147 114.836L94.8724 115.707L94.4662 114.488L93.3824 110.087L95.2258 108.925L95.4396 109.263L94.6276 109.896L98.412 114.509L99.1787 114.136L99.3925 114.474L97.2734 115.811L97.0596 115.472L97.7474 114.939L95.1179 111.579L93.9502 110.114L94.2899 111.419L95.5189 116.521L95.2037 116.719L91.4882 113.802L90.0116 112.598L90.8482 114.271L92.7925 118.064L93.6092 117.648L93.8231 117.986L91.8536 119.228L91.6398 118.89L92.2646 118.397L89.6806 113.016Z" fill="#623B2A"/>
<path d="M98.4957 107.023L97.8398 107.462L97.5757 107.161L101.042 104.123L102.043 105.066L101.707 105.36L100.929 104.854L99.0208 106.464L100.808 108.5L102.078 107.35L101.66 106.689L102.01 106.382L103.367 107.929L103.017 108.236L102.404 107.721L101.097 108.829L102.989 110.984L105.083 109.05L104.672 107.863L105.1 107.673L105.921 109.046L102.125 112.371L101.861 112.071L102.408 111.48L98.4957 107.023Z" fill="#623B2A"/>
<path d="M103.551 102.376L102.978 102.862L102.679 102.595L103.432 101.756C103.523 101.655 103.61 101.553 103.692 101.452C103.774 101.342 103.836 101.264 103.877 101.218C104.075 100.961 104.273 100.722 104.471 100.5C105.056 99.8486 105.591 99.4989 106.076 99.4504C106.562 99.3933 107.047 99.582 107.532 100.017C107.898 100.344 108.136 100.715 108.246 101.131C108.357 101.547 108.349 101.969 108.223 102.398C108.092 102.822 107.861 103.22 107.53 103.589C107.397 103.737 107.258 103.887 107.112 104.04C106.966 104.184 106.876 104.271 106.843 104.299L108.473 105.759L109.406 104.858L109.705 105.125L107.796 107.252L107.497 106.985L107.97 106.333L103.551 102.376ZM106.503 103.994C106.625 103.895 106.858 103.654 107.202 103.271C107.559 102.873 107.74 102.448 107.746 101.996C107.747 101.539 107.494 101.082 106.985 100.627C106.583 100.266 106.199 100.118 105.833 100.182C105.462 100.242 105.068 100.505 104.649 100.971C104.52 101.115 104.387 101.282 104.248 101.474C104.133 101.621 104.054 101.718 104.013 101.764L106.503 103.994Z" fill="#623B2A"/>
<path d="M114.464 99.323C114.128 99.8221 113.717 100.171 113.232 100.368C112.746 100.557 112.221 100.597 111.658 100.488C111.095 100.379 110.526 100.13 109.949 99.7422C109.356 99.3438 108.912 98.8808 108.616 98.3529C108.315 97.8216 108.176 97.279 108.197 96.7249C108.213 96.1674 108.383 95.6495 108.705 95.1707C109.048 94.661 109.46 94.3059 109.939 94.1048C110.422 93.8988 110.943 93.8483 111.501 93.9542C112.062 94.0546 112.633 94.3005 113.215 94.692C113.813 95.0937 114.263 95.5647 114.566 96.1047C114.863 96.641 115.002 97.1905 114.982 97.7532C114.963 98.3157 114.79 98.8391 114.464 99.323ZM109.021 95.4844C108.65 96.0352 108.58 96.6234 108.81 97.2489C109.034 97.8712 109.572 98.4681 110.422 99.0397C110.916 99.3721 111.404 99.5987 111.884 99.7195C112.364 99.8405 112.802 99.8396 113.199 99.7176C113.595 99.5953 113.919 99.349 114.168 98.9782C114.411 98.6181 114.525 98.2382 114.509 97.8389C114.488 97.4361 114.33 97.0269 114.034 96.6107C113.738 96.1947 113.304 95.7945 112.732 95.4101C112.232 95.074 111.747 94.8491 111.277 94.7353C110.803 94.618 110.369 94.6221 109.978 94.7476C109.59 94.8682 109.271 95.1138 109.021 95.4844Z" fill="#623B2A"/>
<path d="M112.767 89.7031L112.332 90.3614L111.972 90.1866L112.481 89.1403C112.571 88.9562 112.675 88.7135 112.793 88.4125C112.902 88.1337 112.987 87.9303 113.049 87.8019C113.402 87.0764 113.777 86.61 114.175 86.4031C114.575 86.1904 115.004 86.1951 115.462 86.4176C115.853 86.6072 116.141 86.8814 116.326 87.2401C116.507 87.5905 116.541 87.9829 116.426 88.417C116.665 87.8842 116.99 87.5351 117.402 87.3695C117.817 87.1983 118.25 87.2225 118.703 87.442C119.261 87.7132 119.623 88.1337 119.788 88.7034C119.955 89.2676 119.822 89.9961 119.388 90.8889C119.336 90.9949 119.248 91.1625 119.123 91.3914C118.959 91.6709 118.815 91.9388 118.69 92.1955L118.189 93.2253L117.829 93.0502L118.104 92.2938L112.767 89.7031ZM115.413 90.1392C115.462 90.0526 115.55 89.8782 115.678 89.6158L115.922 89.1137C116.128 88.6895 116.177 88.3129 116.067 87.9839C115.958 87.655 115.697 87.3903 115.283 87.1896C114.876 86.9916 114.523 86.9583 114.224 87.0892C113.928 87.2147 113.65 87.5452 113.39 88.0811C113.292 88.282 113.203 88.4938 113.122 88.7168C113.068 88.8562 113.033 88.9425 113.017 88.9761L115.413 90.1392ZM118.454 91.6155C118.57 91.4921 118.745 91.1876 118.981 90.7021C119.285 90.0771 119.388 89.5682 119.289 89.1752C119.184 88.7795 118.909 88.4733 118.462 88.2564C118.015 88.0396 117.633 88.0023 117.315 88.1445C116.992 88.2843 116.7 88.622 116.439 89.1576L116.138 89.7771C115.991 90.0786 115.9 90.2723 115.865 90.3588L118.454 91.6155Z" fill="#623B2A"/>
<path d="M120.356 77.7688C120.497 77.5933 120.744 77.426 121.099 77.2665C121.448 77.1057 121.918 76.9211 122.509 76.7131C122.953 76.557 123.297 76.4269 123.541 76.3226C123.78 76.2168 123.927 76.1168 123.983 76.0222L124.163 75.6935L124.551 75.7921L124.317 76.7122C124.283 76.8444 124.122 76.973 123.834 77.0981C123.539 77.2217 123.109 77.3749 122.544 77.5574C121.91 77.7548 121.428 77.9264 121.095 78.0723C120.764 78.2184 120.576 78.3755 120.533 78.5439L120.363 79.2111L122.999 79.8821L123.3 79.1137L123.68 79.2103L123.105 81.4648L122.707 81.3638L122.817 80.5946L117.076 79.1334L116.786 79.8565L116.398 79.7578L116.968 77.5212L117.356 77.6199L117.258 78.4209L119.966 79.1101L120.182 78.2623L117.97 75.6251L117.667 76.4025L117.278 76.3038L117.816 74.1934L118.205 74.2921L118.129 75.0028L120.356 77.7688Z" fill="#623B2A"/>
<path d="M122.264 69.9272C122.353 70.1637 122.411 70.4652 122.439 70.8314C122.462 71.1909 122.454 71.5214 122.416 71.8231C122.362 72.2415 122.252 72.5683 122.084 72.8033C121.917 73.0321 121.675 73.1858 121.358 73.2641C121.035 73.3418 120.612 73.347 120.088 73.2801L118.527 73.0808L118.351 73.6494L117.944 73.5974L118.222 71.4281L118.628 71.4801L118.622 72.333L119.925 72.4995C120.498 72.5726 120.915 72.5884 121.178 72.5468C121.433 72.5044 121.61 72.3988 121.706 72.2298C121.797 72.0599 121.868 71.7748 121.919 71.3749C121.951 71.1225 121.956 70.8448 121.932 70.5416C121.908 70.2382 121.868 70.0142 121.811 69.8694L118.975 69.5071L118.763 70.3527L118.366 70.3018L118.679 67.8555L119.076 67.9063L119.07 68.7593L124.956 69.5112L125.157 68.6736L125.545 68.7231L125.218 71.2803L124.821 71.2294L124.861 70.2587L122.264 69.9272Z" fill="#623B2A"/>
<path d="M119.282 65.8726L119.171 66.6159L118.771 66.6113L118.784 65.4852C118.785 65.3489 118.784 65.2153 118.779 65.085C118.768 64.9485 118.763 64.8491 118.764 64.787C118.743 64.4641 118.734 64.1537 118.738 63.8559C118.748 62.9813 118.919 62.3658 119.253 62.0098C119.58 61.6475 120.069 61.4702 120.721 61.4778C121.212 61.4834 121.636 61.6061 121.993 61.8461C122.351 62.0859 122.624 62.4086 122.811 62.8142C122.993 63.2196 123.081 63.6704 123.075 64.1667C123.073 64.3654 123.067 64.5699 123.059 64.781C123.044 64.9855 123.033 65.1095 123.026 65.1528L125.215 65.1781L125.323 63.8856L125.724 63.8903L125.691 66.7472L125.291 66.7427L125.216 65.9413L119.282 65.8726ZM122.57 65.1476C122.597 64.9926 122.613 64.6578 122.619 64.1429C122.625 63.6094 122.481 63.1703 122.187 62.8255C121.887 62.4809 121.395 62.3045 120.712 62.2965C120.172 62.2905 119.785 62.4318 119.552 62.7207C119.312 63.0095 119.189 63.4672 119.182 64.0938C119.18 64.2862 119.19 64.5002 119.212 64.7364C119.222 64.9227 119.227 65.0467 119.226 65.1089L122.57 65.1476Z" fill="#623B2A"/>
</svg>
