<svg width="70" height="72" viewBox="0 0 70 72" fill="none" xmlns="http://www.w3.org/2000/svg">
<g opacity="1" clip-path="url(#clip0_20_6654)">
<path fill-rule="evenodd" clip-rule="evenodd" d="M35.0001 1.19897C54.3267 1.19897 69.9999 16.6991 69.9999 35.8118C69.9999 54.9246 54.3267 70.4247 35.0001 70.4247C15.6734 70.4247 0 54.9248 0 35.8118C0 16.6988 15.6732 1.19897 35.0001 1.19897Z" fill="#1C3481"/>
<path fill-rule="evenodd" clip-rule="evenodd" d="M34.9994 1.68457C54.0549 1.68457 69.5086 16.9673 69.5086 35.8123C69.5086 54.6572 54.0552 69.9399 34.9994 69.9399C15.9436 69.9399 0.490234 54.6572 0.490234 35.8123C0.490234 16.9673 15.9436 1.68457 34.9994 1.68457ZM34.9994 2.08567C53.831 2.08567 69.1028 17.1888 69.1028 35.8123C69.1028 54.4359 53.831 69.5388 34.9994 69.5388C16.1676 69.5388 0.89574 54.4357 0.89574 35.8123C0.89574 17.1888 16.1676 2.08567 34.9994 2.08567Z" fill="white"/>
<path fill-rule="evenodd" clip-rule="evenodd" d="M34.6586 0C38.2382 0 41.1414 2.87101 41.1414 6.41106C41.1414 9.95111 38.2382 12.8221 34.6586 12.8221C31.079 12.8221 28.1758 9.95111 28.1758 6.41106C28.1758 2.87101 31.079 0 34.6586 0Z" fill="#1C3481"/>
<path fill-rule="evenodd" clip-rule="evenodd" d="M26.1777 60.5546C27.2766 63.8595 28.6508 67.6336 29.7495 70.9383C33.6379 72.3715 36.9809 72.3398 41.3218 70.926C42.4909 67.6889 43.863 63.7917 45.0324 60.5546C38.6865 62.7209 32.5199 62.9244 26.1777 60.5546Z" fill="#F1BC00"/>
<path fill-rule="evenodd" clip-rule="evenodd" d="M34.6577 1.48242C37.4097 1.48242 39.6416 3.68963 39.6416 6.41131C39.6416 9.13299 37.4097 11.34 34.6577 11.34C31.9057 11.34 29.6738 9.13276 29.6738 6.41131C29.6738 3.68963 31.9057 1.48242 34.6577 1.48242Z" fill="#F1BC00"/>
<path fill-rule="evenodd" clip-rule="evenodd" d="M34.7512 11.3272C48.3744 11.3272 59.4224 22.2531 59.4224 35.7256C59.4224 49.1981 48.3746 60.124 34.7512 60.124C21.1281 60.124 10.0801 49.1981 10.0801 35.7256C10.0801 22.2531 21.1281 11.3272 34.7512 11.3272Z" fill="#F1BC00"/>
<path fill-rule="evenodd" clip-rule="evenodd" d="M34.7517 19.3197C43.9122 19.3197 51.3413 26.6664 51.3413 35.7258C51.3413 44.785 43.9122 52.1317 34.7517 52.1317C25.5912 52.1317 18.1621 44.785 18.1621 35.7258C18.1621 26.6664 25.5912 19.3197 34.7517 19.3197Z" fill="#1C3481"/>
<path fill-rule="evenodd" clip-rule="evenodd" d="M27.3281 61.6418C28.2662 64.4637 29.3932 67.7688 30.3312 70.5907C33.8065 71.641 37.2448 71.6048 40.6468 70.4573C41.6451 67.6932 42.8167 64.4059 43.8148 61.6418C37.6018 63.3603 32.9971 63.3744 27.3281 61.6418Z" fill="#1C3481"/>
<path fill-rule="evenodd" clip-rule="evenodd" d="M13.082 43.6885H20.9289L22.8938 42.6085H47.3509L49.4726 43.7142H56.0965C50.4019 38.7304 45.2364 33.9702 39.5418 28.9862C38.3175 28.2059 36.5491 28.6766 35.1628 30.1276C35.3993 30.3974 35.6207 30.6116 35.8573 30.8816C35.5864 30.6439 35.3968 30.3817 35.1628 30.1276C33.234 28.0352 31.5519 26.8284 29.6772 28.5715L13.082 43.6882V43.6885Z" fill="white"/>
<path d="M35.1628 30.1276C36.5491 28.6766 38.3175 28.2059 39.5418 28.9862C45.2364 33.9702 50.4019 38.7304 56.0965 43.7142H49.4726L47.3509 42.6085H22.8938L20.9289 43.6885H13.082V43.6882L29.6772 28.5715C31.5519 26.8284 33.234 28.0352 35.1628 30.1276ZM35.1628 30.1276C35.3993 30.3974 35.6207 30.6116 35.8573 30.8816C35.5864 30.6439 35.3968 30.3817 35.1628 30.1276Z" stroke="#1C3481" stroke-width="2.04877" stroke-miterlimit="22.9256" stroke-linecap="round" stroke-linejoin="round"/>
<path fill-rule="evenodd" clip-rule="evenodd" d="M28.3398 62.6216C29.1822 65.1551 30.0245 67.6523 30.8668 70.1857C33.9868 70.8973 37.0739 70.8573 40.128 70.0662C41.0242 67.5847 41.9204 65.1032 42.8165 62.6219C38.0002 63.9238 33.156 64.1232 28.3398 62.6219V62.6216Z" fill="#F1BC00"/>
<path fill-rule="evenodd" clip-rule="evenodd" d="M34.6573 2.54254C36.8169 2.54254 38.5683 4.27466 38.5683 6.4104C38.5683 8.54613 36.8169 10.2783 34.6573 10.2783C32.4977 10.2783 30.7461 8.54613 30.7461 6.4104C30.7461 4.27466 32.4977 2.54254 34.6573 2.54254Z" stroke="#1C3481" stroke-width="7.16501" stroke-miterlimit="22.9256"/>
<path fill-rule="evenodd" clip-rule="evenodd" d="M58.1564 56.0228C56.8492 57.4558 55.4244 58.853 53.8366 60.2004C52.8839 61.009 51.5778 61.7641 50.3024 62.3541C49.7261 62.1267 49.4042 62.1609 48.8426 61.7971C48.693 61.111 48.8097 60.2453 48.87 59.5455C49.8499 58.7977 50.8296 58.0504 51.8096 57.3028C51.8008 56.3353 51.7921 55.3676 51.7831 54.3999C57.7393 48.2415 60.6449 41.6495 59.9144 34.67C59.8516 32.6057 59.4889 30.5335 58.8079 28.4536C58.0378 26.1011 57.1757 23.8677 55.6188 21.4966C54.4421 20.3051 53.1269 18.929 52.3513 17.6347C51.833 16.6453 51.9792 15.6223 52.3522 14.8285C50.6704 13.9706 49.5761 12.8314 49.1381 11.2512C48.98 10.6809 49.053 10.6361 49.5174 10.4417C50.9127 9.85822 51.298 9.40886 52.4553 10.2008C54.7215 11.7929 56.5636 13.7047 58.1943 15.6877C58.6981 15.7698 59.2979 15.8864 59.89 16.0248C61.5442 16.4106 62.4646 16.7699 63.3674 18.1876C63.7108 18.7269 64.0164 19.2987 64.2905 19.8872C65.3397 22.1386 66.4524 24.611 67.2959 27.207C69.0868 33.456 69.2139 39.206 67.0558 45.3653C65.7434 49.1111 64.0654 52.5952 61.6826 55.7225C60.0226 56.1307 58.847 56.2306 58.1559 56.0228H58.1564Z" fill="white"/>
<path fill-rule="evenodd" clip-rule="evenodd" d="M59.0549 17.7886C58.6561 16.8184 58.1555 15.8523 57.2287 15.2533C54.2744 13.3441 53.1896 13.8354 50.6191 11.5359C51.9956 14.15 53.5727 15.3291 55.7913 16.3349C57.2785 17.0091 56.9846 16.4409 59.0549 17.7886Z" fill="#009847"/>
<path fill-rule="evenodd" clip-rule="evenodd" d="M54.1448 16.3246C56.4176 17.8441 58.2099 18.5403 59.5731 19.5672C60.6706 20.6403 61.0641 21.9531 61.6705 24.713C58.91 22.1074 56.1771 19.434 54.1445 16.3244L54.1448 16.3246Z" fill="#009847"/>
<path fill-rule="evenodd" clip-rule="evenodd" d="M60.3008 16.71C61.4789 19.0691 62.283 21.8046 62.4912 24.7904C62.5755 25.9989 63.2424 27.0183 63.6521 27.963C64.1241 24.9748 64.2026 22.9039 63.7984 21.0944C63.4295 19.4438 61.92 18.6422 60.301 16.71H60.3008Z" fill="#009847"/>
<path fill-rule="evenodd" clip-rule="evenodd" d="M65.6802 42.9923C64.4839 44.156 64.1463 45.4047 64.1993 46.692C65.4201 45.5358 66.4502 44.5606 67.6714 43.4044C68.0463 42.054 68.3406 40.3563 68.519 38.9242C68.3307 38.2503 68.3468 37.577 67.8575 37.3018C67.7508 37.2417 67.6026 37.1766 67.5181 37.261C67.3759 37.4028 67.0564 37.4454 66.8429 37.4754C67.6359 36.2482 67.7991 34.9618 67.7609 33.6661C67.7271 32.5136 67.4408 31.0371 67.1908 29.9105C66.8431 28.3438 66.2095 26.8938 65.4461 25.4963C65.3849 27.3955 65.1939 29.5055 64.7447 31.9706C63.967 27.8184 61.4307 25.3542 58.5875 23.1839C58.5146 25.1614 59.1201 27.6728 63.2895 32.305C63.0817 32.562 63.0822 32.5614 62.8743 32.8184C61.5476 31.5668 60.4146 30.1331 59.6144 28.9123C59.6706 31.6242 60.2282 34.4332 61.5011 36.7657C61.3278 36.9405 61.1738 37.2952 60.9651 37.5237C60.8215 37.6808 60.6995 37.7473 60.4823 37.7548C60.2867 37.7614 60.201 37.7457 60.0027 37.7507C59.958 39.1438 60.0712 41.0476 59.8087 41.9156C59.7 43.8738 59.5827 45.8242 59.5233 47.771C60.1173 46.7304 60.8325 45.7343 61.398 44.6812C61.5775 43.8929 61.5115 43.0798 61.3628 42.3331C60.2227 41.8182 60.7568 40.7098 60.7815 39.56C60.7391 38.5538 60.2376 38.7259 59.9582 38.4245C60.642 38.3321 60.9435 38.5695 61.1441 38.7694C61.4521 38.7238 61.2657 37.8952 61.6277 37.6742C61.9135 37.7127 61.963 38.6166 62.2113 38.7368C62.5643 38.6346 63.1977 37.9883 63.4835 38.027C63.1404 37.483 62.9998 37.0097 63.1763 36.3789C63.2711 36.0409 63.3111 35.6816 63.194 35.2776C62.9646 34.4854 62.4327 34.4956 62.0042 33.9236C62.7689 33.8257 63.5344 34.5874 63.5581 34.3943C63.5387 33.899 63.594 33.3501 63.7318 33.0499C64.0299 33.2932 64.0938 33.5828 64.2862 34.2029C64.3392 34.2992 64.431 34.3504 64.5072 34.3807C64.6229 34.3615 64.7502 34.2898 64.7774 34.2102C64.9856 33.8621 65.5886 33.5505 65.9789 34.0747C65.4305 34.0276 65.1693 34.1667 65.1237 34.8161C65.2001 35.8362 65.6355 37.7013 64.3804 38.2465C64.8722 38.2886 65.1622 38.4495 65.6349 38.9324C66.1593 38.6305 66.1881 38.2394 66.3181 37.9394C66.3833 37.9357 66.436 37.9098 66.4804 37.9057C66.5596 37.9617 66.6028 37.9776 66.6136 38.0553C66.5002 38.3865 66.4553 38.7571 66.6028 39.1065C67.1319 38.9012 67.6023 38.8477 68.046 38.8629C67.6375 39.229 67.2424 39.567 66.9006 40.036C66.4988 40.5878 66.7418 41.2345 66.6769 41.8853C66.6019 42.6386 66.1483 42.7467 65.6802 42.9928V42.9923Z" fill="#009847"/>
<path fill-rule="evenodd" clip-rule="evenodd" d="M61.8452 46.2797C63.2369 45.3466 64.4163 44.1549 65.185 42.8455C64.9194 42.4829 64.7003 42.4289 64.6186 41.9249C64.5139 41.278 64.5986 40.8325 64.7201 40.2984C64.7981 39.9554 64.8948 39.6717 64.8186 39.323C64.6817 38.6968 64.3588 38.3733 64.0532 38.2827C63.9963 38.2647 63.8762 38.1716 63.8196 38.1739C63.4394 38.1891 63.1239 38.6888 62.9536 39.0878C62.8733 39.2763 62.8654 39.4022 62.8578 39.6051C62.8325 40.2898 62.7653 41.0326 62.384 41.716C62.2438 41.9673 62.0181 42.1717 61.7129 42.3506C61.7205 43.6307 61.8376 44.9999 61.8452 46.2799V46.2797Z" fill="#009847"/>
<path fill-rule="evenodd" clip-rule="evenodd" d="M63.7628 45.7297C62.8332 48.4375 60.7739 50.698 58.0977 52.902C58.3361 52.2537 58.4928 51.6842 58.5464 51.2145C58.5683 51.0222 58.5568 50.8442 58.606 50.6568C58.7648 50.0529 58.9335 49.5197 59.1248 49.0686C59.612 48.502 60.0927 47.9023 60.7477 47.5509C62.0439 46.8552 62.955 46.1645 63.7628 45.7297Z" fill="#009847"/>
<path fill-rule="evenodd" clip-rule="evenodd" d="M66.4568 45.022C66.611 46.6405 64.8535 48.8127 62.0234 51.2949C62.0354 50.1933 62.5242 49.1589 63.4899 48.1922C64.6898 47.1163 65.757 46.0525 66.4568 45.0218V45.022Z" fill="#009847"/>
<path fill-rule="evenodd" clip-rule="evenodd" d="M58.4079 45.999C57.5736 46.7398 56.7937 47.7469 56.6692 48.8917C56.4057 51.3144 55.9521 52.2478 56.0206 54.2956C56.8938 53.3077 57.6394 52.0768 57.9303 49.9789C58.0896 48.6522 58.2486 47.3257 58.4079 45.9992V45.999Z" fill="#009847"/>
<path fill-rule="evenodd" clip-rule="evenodd" d="M55.5102 50.6197C53.5604 52.5849 52.5941 55.2267 52.6116 58.5453C52.9639 58.1405 53.3162 57.7358 53.6688 57.3312C53.7779 57.5368 53.919 57.6727 54.078 57.7697C54.5051 56.9563 55.1042 56.3312 55.9536 55.982C57.67 55.4313 59.3866 54.8805 61.1032 54.3296C62.0586 53.5711 63.2882 52.0347 63.7984 50.9591C62.9745 51.6011 61.9861 52.1749 60.6582 52.6628C59.6713 53.0254 58.7208 53.5663 57.6587 53.9922C56.2722 54.7805 55.1316 55.7876 54.2142 56.9936C54.3728 56.2135 54.7256 55.4482 54.6899 54.6533C54.6225 53.1401 54.9719 51.833 55.5099 50.6197H55.5102Z" fill="#009847"/>
<path fill-rule="evenodd" clip-rule="evenodd" d="M52.3381 58.9762C51.4732 59.6482 50.1067 60.4989 49.7168 61.5287C50.0882 61.3689 50.4344 61.2756 50.725 61.3293C51.9943 60.2578 52.1579 59.6216 52.3381 58.9762Z" fill="#009847"/>
<path fill-rule="evenodd" clip-rule="evenodd" d="M11.6316 56.0228C12.9388 57.4558 14.3638 58.853 15.9513 60.2004C16.9041 61.009 18.2102 61.7641 19.4856 62.3541C20.0619 62.1267 20.3838 62.1609 20.9454 61.7971C21.095 61.111 20.9783 60.2453 20.9182 59.5455C19.9383 58.7977 18.9583 58.0504 17.9786 57.3028C17.9874 56.3353 17.9961 55.3676 18.0049 54.3999C12.0489 48.2415 9.14312 41.6495 9.87358 34.67C9.93641 32.6057 10.2991 30.5335 10.9801 28.4536C11.7504 26.1011 12.6122 23.8677 14.1691 21.4966C15.3458 20.3051 16.6611 18.929 17.4367 17.6347C17.9549 16.6453 17.8088 15.6223 17.4357 14.8285C19.1174 13.9706 20.2119 12.8314 20.6496 11.2512C20.8077 10.6809 20.7348 10.6361 20.2704 10.4417C18.875 9.85822 18.4898 9.40886 17.3324 10.2008C15.0662 11.7929 13.2242 13.7047 11.5934 15.6877C11.0896 15.7698 10.4901 15.8864 9.89775 16.0248C8.24351 16.4106 7.32318 16.7699 6.42034 18.1876C6.07697 18.7269 5.77135 19.2987 5.49725 19.8872C4.44828 22.1386 3.33532 24.611 2.49209 27.207C0.700918 33.456 0.574112 39.206 2.73213 45.3653C4.04461 49.1111 5.72256 52.5952 8.10542 55.7225C9.76565 56.1307 10.941 56.2306 11.6321 56.0228H11.6316Z" fill="white"/>
<path fill-rule="evenodd" clip-rule="evenodd" d="M10.7344 17.7886C11.1332 16.8184 11.6338 15.8523 12.5608 15.2533C15.5151 13.3441 16.5997 13.8354 19.1701 11.5359C17.7937 14.15 16.2168 15.3291 13.998 16.3349C12.5108 17.0091 12.8047 16.4409 10.7344 17.7886Z" fill="#009847"/>
<path fill-rule="evenodd" clip-rule="evenodd" d="M15.6449 16.3246C13.3721 17.8441 11.5797 18.5403 10.2166 19.5672C9.1191 20.6403 8.72556 21.9531 8.11914 24.713C10.8797 22.1074 13.6128 19.434 15.6452 16.3244L15.6449 16.3246Z" fill="#009847"/>
<path fill-rule="evenodd" clip-rule="evenodd" d="M9.48693 16.71C8.30885 19.0691 7.50474 21.8046 7.29646 24.7904C7.21223 25.9989 6.54529 27.0183 6.13564 27.963C5.66362 24.9748 5.58515 22.9039 5.98927 21.0944C6.35818 19.4438 7.86767 18.6422 9.48693 16.71Z" fill="#009847"/>
<path fill-rule="evenodd" clip-rule="evenodd" d="M4.15099 42.9523C5.34725 44.116 5.64413 45.4047 5.5912 46.692C4.37008 45.5358 3.34021 44.5606 2.11909 43.4044C1.74419 42.054 1.44984 40.3563 1.27148 38.9242C1.45974 38.2503 1.44363 37.577 1.93314 37.3018C2.03992 37.2417 2.1879 37.1766 2.27259 37.261C2.41459 37.4028 2.73425 37.4454 2.94782 37.4754C2.15476 36.2482 1.99159 34.9618 2.02979 33.6661C2.06362 32.5136 2.34992 31.0371 2.60008 29.9105C2.94759 28.3438 3.58139 26.8938 4.34454 25.4963C4.40575 27.3955 4.59677 29.5055 5.046 31.9706C5.82387 27.8184 8.36001 25.3542 11.2031 23.1839C11.2761 25.1614 10.6706 27.6728 6.5014 32.305C6.70922 32.562 6.70876 32.5614 6.91657 32.8184C8.24333 31.5668 9.3763 30.1331 10.1765 28.9123C10.1203 31.6242 9.56272 34.4332 8.28981 36.7657C8.46311 36.9405 8.61707 37.2952 8.82581 37.5237C8.96942 37.6808 9.09139 37.7473 9.30864 37.7548C9.50426 37.7614 9.58987 37.7457 9.78825 37.7507C9.8329 39.1438 9.71967 41.0476 9.98226 41.9156C10.0911 43.8738 10.2085 45.8242 10.2679 47.771C9.67364 46.7304 8.9586 45.7343 8.39292 44.6812C8.21341 43.8929 8.27969 43.0798 8.42836 42.3331C9.56847 41.8182 9.03432 40.7098 9.00969 39.56C9.05204 38.5538 9.55351 38.7259 9.8329 38.4245C9.14915 38.3321 8.7761 38.7555 8.57542 38.9551C8.26749 38.9096 8.47784 38.0131 8.1637 37.6742C7.9255 37.7953 7.89904 38.7509 7.65049 38.8711C7.29745 38.7687 6.85582 38.1062 6.30785 38.0268C6.65099 37.4827 6.79161 37.0095 6.61509 36.3787C6.5205 36.0406 6.48023 35.6814 6.59737 35.2773C6.69058 34.9555 6.83395 34.726 6.99965 34.5762C7.24222 34.3572 7.49422 34.2184 7.78719 33.9233C7.02244 33.8254 6.1509 34.6201 6.12696 34.4271C6.1463 33.932 6.19739 33.3499 6.05953 33.0496C5.77324 33.2834 5.70305 33.5598 5.52699 34.1314C5.50191 34.2133 5.38799 34.4292 5.3033 34.4328C5.17649 34.4383 5.03725 34.2275 5.01378 34.2099C4.8055 33.8619 4.20254 33.5502 3.81245 34.0745C4.30058 34.0326 4.56133 34.1382 4.64464 34.6206C4.66535 34.7408 4.66604 34.8441 4.65453 34.9646C4.55396 36.0078 4.21451 37.7265 5.41077 38.246C4.91896 38.2881 4.62899 38.4491 4.15628 38.9319C3.63179 38.63 3.59819 38.2526 3.46839 37.9526C3.4058 37.9401 3.36897 37.9143 3.32594 37.9105C3.22767 37.9767 3.21271 37.9753 3.18164 38.073C3.28612 38.4045 3.33307 38.763 3.18855 39.106C2.65945 38.9007 2.18905 38.8472 1.74557 38.8625C2.15407 39.2285 2.54922 39.5666 2.89074 40.0355C3.29257 40.5873 3.04954 41.234 3.11444 41.8849C3.18947 42.6379 3.68358 42.7062 4.15191 42.9523H4.15099Z" fill="#009847"/>
<path fill-rule="evenodd" clip-rule="evenodd" d="M7.9433 46.2797C6.55165 45.3466 5.37241 44.1549 4.60352 42.8455C4.8691 42.4829 5.08842 42.4289 5.16989 41.9249C5.2746 41.278 5.18991 40.8325 5.0684 40.2984C4.99038 39.9554 4.89372 39.6717 4.9699 39.323C5.10683 38.6968 5.42972 38.3733 5.73534 38.2827C5.79219 38.2647 5.91232 38.1716 5.96893 38.1739C6.34912 38.1891 6.66464 38.6888 6.83495 39.0878C6.91527 39.2763 6.92309 39.4022 6.93046 39.6051C6.95577 40.2898 7.02297 41.0326 7.40431 41.716C7.54447 41.9673 7.77023 42.1717 8.0754 42.3506C8.0678 43.6307 7.95066 44.9999 7.94307 46.2799L7.9433 46.2797Z" fill="#009847"/>
<path fill-rule="evenodd" clip-rule="evenodd" d="M6.02734 45.7297C6.95688 48.4375 9.01616 50.698 11.6925 52.902C11.454 52.2537 11.2973 51.6842 11.2437 51.2145C11.2218 51.0222 11.2333 50.8442 11.1841 50.6568C11.0253 50.0529 10.8566 49.5197 10.6653 49.0686C10.1781 48.502 9.69761 47.9023 9.0424 47.5509C7.74626 46.8552 6.83536 46.1645 6.02734 45.7297Z" fill="#009847"/>
<path fill-rule="evenodd" clip-rule="evenodd" d="M3.33165 45.022C3.17746 46.6405 4.93503 48.8127 7.76505 51.2949C7.75309 50.1933 7.26427 49.1589 6.29861 48.1922C5.09866 47.1163 4.0315 46.0525 3.33165 45.0218V45.022Z" fill="#009847"/>
<path fill-rule="evenodd" clip-rule="evenodd" d="M11.3809 45.999C12.2151 46.7398 12.9951 47.7469 13.1196 48.8917C13.3831 51.3144 13.8367 52.2478 13.7681 54.2956C12.8949 53.3077 12.1493 52.0768 11.8584 49.9789C11.6991 48.6522 11.5401 47.3257 11.3809 45.9992V45.999Z" fill="#009847"/>
<path fill-rule="evenodd" clip-rule="evenodd" d="M14.28 50.6197C16.2297 52.5849 17.1961 55.2267 17.1788 58.5453C16.8262 58.1405 16.4739 57.7358 16.1215 57.3312C16.0125 57.5368 15.8714 57.6727 15.7124 57.7697C15.2852 56.9563 14.6862 56.3312 13.8367 55.982C12.1203 55.4313 10.4037 54.8805 8.68735 54.3296C7.73181 53.5711 6.50218 52.0347 5.99219 50.9591C6.81609 51.6011 7.80454 52.1749 9.13244 52.6628C10.1195 53.0254 11.0698 53.5663 12.1318 53.9922C13.5184 54.7805 14.659 55.7876 15.5763 56.9936C15.4178 56.2135 15.0652 55.4482 15.1006 54.6533C15.1681 53.1401 14.8187 51.833 14.2807 50.6197H14.28Z" fill="#009847"/>
<path fill-rule="evenodd" clip-rule="evenodd" d="M17.4512 58.9762C18.316 59.6482 19.6826 60.4989 20.0725 61.5287C19.701 61.3689 19.3549 61.2756 19.0644 61.3293C17.795 60.2578 17.6314 59.6216 17.4512 58.9762Z" fill="#009847"/>
</g>
<defs>
<clipPath id="clip0_20_6654">
<rect width="70" height="72" fill="white"/>
</clipPath>
</defs>
</svg>
