<svg width="21" height="21" viewBox="0 0 21 21" fill="none" xmlns="http://www.w3.org/2000/svg">
<path fill-rule="evenodd" clip-rule="evenodd" d="M1.92772 0H18.8364C19.8967 0 20.7642 0.867473 20.7642 1.92772V18.4581C20.7642 19.5183 19.8967 20.3858 18.8364 20.3858H1.92772C0.867473 20.3858 0 19.5183 0 18.4581V1.92772C0 0.867473 0.867473 0 1.92772 0Z" fill="#562211"/>
<path fill-rule="evenodd" clip-rule="evenodd" d="M11.0098 4.44399C11.9702 4.7744 12.4746 5.80308 12.1365 6.74161C11.7984 7.68012 10.7458 8.17311 9.78537 7.8427C8.82498 7.51229 8.32052 6.48361 8.65862 5.5451C8.99674 4.60657 10.0494 4.11358 11.0098 4.44399ZM13.1361 10.8939C13.4048 10.7363 13.7017 10.5815 14.0174 10.5651C14.3447 10.548 14.7769 10.723 14.9946 10.9561C15.4581 11.4526 15.4934 12.2706 14.9806 12.7435C14.9011 12.8168 14.799 12.8926 14.6977 12.9558C13.7761 13.4862 13.2499 13.7413 12.1977 13.9664C12.3377 14.0768 12.4787 14.2105 12.5991 14.3242C13.3094 15.0136 14.032 15.6901 14.7424 16.3791C15.2062 16.8338 15.2282 17.4816 14.8896 18.0071C14.5257 18.5718 13.7743 18.7116 13.1858 18.3879C13.0296 18.3019 12.8893 18.1855 12.7299 18.0348C11.9701 17.2985 11.2099 16.5602 10.4366 15.8379C10.3336 15.9353 10.1654 16.106 10.0338 16.2356C9.35964 16.8949 8.70537 17.5739 8.02604 18.2282C7.47021 18.7823 6.64269 18.7262 6.1036 18.1664C5.70194 17.7492 5.64921 17.0742 6.01201 16.6094C6.21389 16.3619 6.44758 16.1417 6.67777 15.92C7.19994 15.3961 8.07443 14.5766 8.54628 14.0383C7.6872 13.7651 6.64529 13.4469 5.92464 12.9318C5.31102 12.493 5.22591 11.741 5.63377 11.1425C5.78811 10.916 6.00854 10.7527 6.35669 10.6686C6.74881 10.5741 7.13332 10.6577 7.47517 10.848C8.50084 11.419 9.39831 11.707 10.752 11.6116C11.5834 11.528 12.414 11.3156 13.1361 10.8939ZM11.8752 2.04164C14.1933 2.83914 15.4109 5.32204 14.5948 7.58732C13.7788 9.85263 11.238 11.0425 8.91992 10.245C6.60182 9.44752 5.38423 6.96465 6.2003 4.69934C7.01638 2.43403 9.55713 1.24415 11.8752 2.04164Z" fill="#FEFEFE"/>
</svg>
