<svg width="19" height="20" viewBox="0 0 19 20" fill="none" xmlns="http://www.w3.org/2000/svg">
<path d="M17.3811 20L10.8424 13.1164C7.93368 15.2931 3.92556 14.7607 1.62179 11.8916C-0.681968 9.02253 -0.512809 4.77397 2.01094 2.11786C4.53403 -0.539419 8.57079 -0.71824 11.2971 1.7065C14.0234 4.13124 14.5295 8.35047 12.4613 11.4124L19 18.296L17.3822 19.9988L17.3811 20ZM6.8643 2.40927C4.69471 2.40876 2.82291 4.01178 2.38218 6.24781C1.94144 8.48384 3.0529 10.7383 5.04364 11.6463C7.03437 12.5543 9.35723 11.8662 10.6059 9.99863C11.8545 8.13108 11.6857 5.59736 10.2017 3.93148L10.8939 4.65404L10.1136 3.83514L10.0999 3.82069C9.24383 2.91409 8.07867 2.40583 6.8643 2.40927Z" fill="#562211"/>
</svg>
