<svg width="27" height="14" viewBox="0 0 27 14" fill="none" xmlns="http://www.w3.org/2000/svg">
<path fill-rule="evenodd" clip-rule="evenodd" d="M4.90917 0.0616935C3.32891 0.0588468 1.74817 0.0457794 0.167719 0.0457794C-0.383503 0.00732584 0.592833 0.513756 0.683006 0.827124C3.77516 8.0142 7.85624 13.1272 11.2066 13.7581C15.5069 14.0557 15.4664 14.334 15.6729 11.7133C15.8474 10.4412 16.9609 10.4494 17.6772 10.7492C18.7988 11.7397 19.9108 12.3989 20.7265 13.4014C21.0927 13.8515 21.1869 14.0201 22.1013 13.9981C24.5047 13.9403 27.2415 13.9985 26.8284 13.9706C27.9122 12.8044 23.5784 10.0394 21.7724 7.54744C23.7631 5.23789 25.6128 3.17834 26.7602 0.795437C26.993 0.362788 26.9927 0.0460602 26.8834 0C24.7752 0 23.9609 0.000138998 21.9759 0.000138998C21.3322 0.000138998 21.2523 -0.0132544 21.0354 0.567142C19.9449 3.48424 19.1766 4.94007 16.9342 6.77132C16.3304 6.86946 15.7299 6.77613 15.3648 5.82898C15.3648 4.12545 15.3648 2.42178 15.3648 0.71825C15.3648 -0.0197405 15.3037 0.0111062 14.6023 0.0111062C12.8193 0.0111062 11.8862 0.0111062 9.97134 0.0111062C9.58586 0.000839457 10.4056 0.239121 10.6564 1.43071C10.8536 3.09458 10.8815 3.64114 10.6748 5.53745C10.5851 6.57289 9.76678 6.7478 9.03492 6.23825C7.40518 4.82134 6.51513 2.51941 5.7643 0.735283C5.46985 0.0356527 5.6441 0.0628135 4.90917 0.0616935Z" fill="#562211"/>
</svg>
