<svg width="19" height="19" viewBox="0 0 19 19" fill="none" xmlns="http://www.w3.org/2000/svg">
<path fill-rule="evenodd" clip-rule="evenodd" d="M0.352097 18.3904L1.65647 14.9909C-4.63668 2.82093 8.56117 -3.5684 15.1949 2.07291C23.6809 9.10408 17.1006 23.6797 4.07077 17.515C4.04046 17.5006 3.86271 17.4016 3.88634 17.394C5.20401 16.9691 11.1369 15.2947 12.2559 14.8448C12.3111 14.8228 12.815 14.8138 13.1469 14.6783C14.2916 14.1937 14.7483 13.4346 15.068 12.4812C15.2337 11.9866 15.0432 11.9616 14.599 11.7668L12.7428 10.9525C12.2939 10.7557 12.0329 10.5383 11.7355 10.9061L11.1565 11.7804C10.972 12.0204 10.663 12.2451 10.2624 12.1051C8.54621 11.5056 7.79607 10.8628 6.75066 9.25339C6.56432 8.96668 6.57085 8.46824 6.79264 8.2385L7.50952 7.54215C7.704 7.37633 7.69556 7.09947 7.60159 6.87515L6.7417 4.82444C6.62818 4.37734 6.26529 4.14389 5.85884 4.24417C4.06724 4.68637 3.25148 6.09813 3.74428 8.2263C4.98065 11.3695 7.55231 13.9234 12.2559 14.8448C12.2631 14.8462 12.2581 14.8443 12.2492 14.8477C12.2332 14.8542 12.1951 14.8703 12.1348 14.8933C10.9768 15.3351 1.72709 18.0258 0.352097 18.3904Z" fill="#562211"/>
</svg>
